<svg width="105" height="15" viewBox="0 0 105 15" version="1.1" xmlns="http://www.w3.org/2000/svg" xmlns:xlink="http://www.w3.org/1999/xlink">
<title>logo</title>
<desc>Created using Figma</desc>
<g id="Canvas" transform="translate(-29698 1519)">
<rect x="29698" y="-1519" width="105" height="15" fill="#E5E5E5"/>
<clipPath id="clip-0" clip-rule="evenodd">
<path d="M 29216 -1543L 30286 -1543L 30286 939L 29216 939L 29216 -1543Z" fill="#FFFFFF"/>
</clipPath>
<g id="home 1070" clip-path="url(#clip-0)">
<path d="M 29216 -1543L 30286 -1543L 30286 939L 29216 939L 29216 -1543Z" fill="#FFFFFF"/>
<g id="header 1070">
<g id="bg">
<use xlink:href="#path0_fill" transform="translate(29216 -1543)" fill="#FFFFFF"/>
</g>
<g id="menu">
<g id="logo">
<g id="Vector">
<use xlink:href="#path1_fill" transform="translate(29698 -1519)"/>
</g>
<g id="Vector">
<use xlink:href="#path2_fill" transform="translate(29713.9 -1518.71)"/>
</g>
<g id="Vector">
<use xlink:href="#path3_fill" transform="translate(29739.7 -1518.71)"/>
</g>
<g id="Vector">
<use xlink:href="#path4_fill" transform="translate(29757.4 -1518.71)"/>
</g>
<g id="Vector">
<use xlink:href="#path5_fill" transform="translate(29776.2 -1518.71)"/>
</g>
<g id="Vector">
<use xlink:href="#path6_fill" transform="translate(29791.6 -1518.71)"/>
</g>
</g>
</g>
</g>
</g>
</g>
<defs>
<path id="path0_fill" d="M 0 0L 1070 0L 1070 65L 0 65L 0 0Z"/>
<path id="path1_fill" d="M 0 11.4331L 2.85662 9.78439C 3.36806 10.98 4.26372 11.7832 5.8991 11.7832C 7.47211 11.7832 7.86505 11.1625 7.86505 10.6088C 7.86505 9.72356 7.03676 9.36724 4.86373 8.77504C 2.71192 8.17787 0.600014 7.14741 0.600014 4.38752C 0.600014 1.60652 2.96015 0 5.46375 0C 7.84385 0 9.70501 1.1335 10.7628 3.25526L 7.96859 4.88164C 7.46962 3.85118 6.78852 3.21304 5.46375 3.21304C 4.42838 3.21304 3.91194 3.72827 3.91194 4.30434C 3.91194 4.96358 4.26372 5.4217 6.52032 6.09709C 8.71455 6.75633 11.177 7.51862 11.177 10.5665C 11.177 13.3475 8.94158 14.995 5.79556 14.995C 2.75308 14.9963 0.807088 13.5549 0 11.4331Z"/>
<path id="path2_fill" d="M 2.6648e-07 -8.28801e-09L 3.47784 -8.28801e-09L 5.98268 10.0935L 8.77692 -8.28801e-09L 11.4676 -8.28801e-09L 14.2619 10.0935L 16.7667 -8.28801e-09L 20.2383 -8.28801e-09L 16.2465 14.4202L 12.4793 14.4202L 10.1217 5.9121L 7.76401 14.4202L 3.99677 14.4202L 2.6648e-07 -8.28801e-09Z"/>
<path id="path3_fill" d="M 0 9.76825L 0 -8.28802e-09L 3.31193 -8.28802e-09L 3.31193 9.47649C 3.31193 10.5678 3.82961 11.4952 5.58849 11.4952C 7.34737 11.4952 7.86505 10.5678 7.86505 9.47649L 7.86505 -8.28802e-09L 11.177 -8.28802e-09L 11.177 9.76825C 11.177 12.8584 8.77567 14.712 5.58849 14.712C 2.4013 14.712 0 12.8547 0 9.76825Z"/>
<path id="path4_fill" d="M 12.8323 7.21073C 12.8323 11.2891 9.78984 14.4202 5.79557 14.4202L -6.09097e-07 14.4202L -6.09097e-07 -8.28802e-09L 5.79557 -8.28802e-09C 9.78984 -8.28802e-09 12.8323 3.1311 12.8323 7.21073ZM 9.64514 7.21073C 9.64514 4.73887 8.07213 3.17332 5.79557 3.17332L 3.31068 3.17332L 3.31068 11.2432L 5.79432 11.2432C 8.07213 11.2481 9.64514 9.68259 9.64514 7.21073Z"/>
<path id="path5_fill" d="M 9.10624 11.2481L 9.10624 14.4202L -1.82729e-06 14.4202L -1.82729e-06 -8.28802e-09L 8.99897 -8.28802e-09L 8.99897 3.17207L 3.31068 3.17207L 3.31068 5.56199L 8.48503 5.56199L 8.48503 8.6931L 3.31068 8.6931L 3.31068 11.2481L 9.10624 11.2481Z"/>
<path id="path6_fill" d="M 11.3841 -8.28802e-09L 11.3841 14.4202L 8.90042 14.4202L 3.30943 6.59245L 3.30943 14.4202L -3.65458e-06 14.4202L -3.65458e-06 -8.28802e-09L 2.48364 -8.28802e-09L 8.07212 7.82776L 8.07212 -8.28802e-09L 11.3841 -8.28802e-09Z"/>
</defs>
</svg>
