<svg width="24" height="22" viewBox="0 0 24 22" version="1.1" xmlns="http://www.w3.org/2000/svg" xmlns:xlink="http://www.w3.org/1999/xlink">
<title>wishlist</title>
<desc>Created using Figma</desc>
<g id="Canvas" transform="translate(-30154 1522)">
<rect x="30154" y="-1522" width="24" height="22" fill="#E5E5E5"/>
<clipPath id="clip-0" clip-rule="evenodd">
<path d="M 29216 -1543L 30286 -1543L 30286 939L 29216 939L 29216 -1543Z" fill="#FFFFFF"/>
</clipPath>
<g id="home 1070" clip-path="url(#clip-0)">
<path d="M 29216 -1543L 30286 -1543L 30286 939L 29216 939L 29216 -1543Z" fill="#FFFFFF"/>
<g id="header 1070">
<g id="bg">
<use xlink:href="#path0_fill" transform="translate(29216 -1543)" fill="#FFFFFF"/>
</g>
<g id="menu">
<g id="wishlist">
<g id="wishlist">
<mask id="mask0_outline_out">
<rect id="mask0_outline_inv" fill="white" x="-2" y="-3" width="24" height="23" transform="translate(30156 -1520)"/>
<use xlink:href="#path1_fill" fill="black" transform="translate(30156 -1520)"/>
</mask>
<g mask="url(#mask0_outline_out)">
<use xlink:href="#path2_stroke_2x" transform="translate(30156 -1520)"/>
</g>
</g>
</g>
</g>
</g>
</g>
</g>
<defs>
<path id="path0_fill" d="M 0 0L 1070 0L 1070 65L 0 65L 0 0Z"/>
<path id="path1_fill" d="M 20 4.85327C 20 11.0457 12.381 16.0446 10 17C 7.61905 16.0446 0 11.0457 0 4.85327C 0 -1.33914 7 -1.20088 10 2.98455C 13 -1.20088 20 -1.33914 20 4.85327Z"/>
<path id="path2_stroke_2x" d="M 10 17L 9.25517 18.8561L 10 19.155L 10.7448 18.8561L 10 17ZM 10 2.98455L 8.37445 4.1497L 10 6.41758L 11.6256 4.1497L 10 2.98455ZM 18 4.85327C 18 7.13956 16.5633 9.4474 14.498 11.4572C 12.4595 13.4409 10.1752 14.7747 9.25517 15.1439L 10.7448 18.8561C 12.2057 18.2699 14.9214 16.6265 17.2877 14.3238C 19.6272 12.0472 22 8.7594 22 4.85327L 18 4.85327ZM 10.7448 15.1439C 9.82479 14.7747 7.54048 13.4409 5.50197 11.4572C 3.43671 9.4474 2 7.13956 2 4.85327L -2 4.85327C -2 8.7594 0.372815 12.0472 2.71232 14.3238C 5.07857 16.6265 7.79426 18.2699 9.25517 18.8561L 10.7448 15.1439ZM 2 4.85327C 2 3.68876 2.32205 3.04222 2.63664 2.68767C 3.02601 2.18099 3.32793 2.06782 4.07754 2.01694C 5.44656 1.87758 7.2663 2.60367 8.37445 4.1497L 11.6256 1.8194C 9.7337 -0.820003 6.55344 -2.25576 3.67246 -1.9625C 2.29707 -1.79707 0.661489 -1.04532 -0.355388 0.0329018C -1.44705 1.26325 -2 2.92158 -2 4.85327L 2 4.85327ZM 11.6256 4.1497C 12.7337 2.60367 14.5534 1.87758 15.9225 2.01694C 16.6721 2.06782 16.974 2.18099 17.3634 2.68767C 17.6779 3.04222 18 3.68876 18 4.85327L 22 4.85327C 22 2.92158 21.4471 1.26325 20.3554 0.0329018C 19.3385 -1.04532 17.7029 -1.79707 16.3275 -1.9625C 13.4466 -2.25576 10.2663 -0.820004 8.37445 1.8194L 11.6256 4.1497Z"/>
</defs>
</svg>
