<svg width="52" height="72" viewBox="0 0 52 72" version="1.1" xmlns="http://www.w3.org/2000/svg" xmlns:xlink="http://www.w3.org/1999/xlink">
  <title>Canvas.svg</title>
  <desc>Created using Figma</desc>
  <g id="Canvas" transform="translate(-36001 1313)">
    <g id="Ellipse">
      <use xlink:href="#path0_fill" transform="translate(36001 -1313)"/>
    </g>
    <g id="Vector">
      <use xlink:href="#path1_fill" transform="translate(36018.3 -1298.6)" fill="#FFFFFF"/>
    </g>
  </g>
  <defs>
    <path id="path0_fill" d="M 52 25.9433C 52 40.2714 46.8 46.0567 26 72C 5.2 46.0567 0 40.2714 0 25.9433C 0 11.6152 11.6406 0 26 0C 40.3594 0 52 11.6152 52 25.9433Z"/>
    <path id="path1_fill" d="M 0 16.4637L 4.12622 14.0895C 4.86498 15.8112 6.15871 16.9679 8.52092 16.9679C 10.793 16.9679 11.3606 16.074 11.3606 15.2766C 11.3606 14.0019 10.1642 13.4888 7.02539 12.6361C 3.91721 11.7761 0.866687 10.2923 0.866687 6.31803C 0.866687 2.31339 4.27578 0 7.89208 0C 11.33 0 14.0184 1.63225 15.5463 4.68757L 11.5102 7.02956C 10.7894 5.5457 9.80564 4.62678 7.89208 4.62678C 6.39655 4.62678 5.65058 5.36871 5.65058 6.19825C 5.65058 7.14756 6.1587 7.80725 9.41824 8.7798C 12.5877 9.72912 16.1445 10.8268 16.1445 15.2158C 16.1445 19.2205 12.9156 21.5928 8.37137 21.5928C 3.97667 21.5946 1.16579 19.519 0 16.4637Z"/>
  </defs>
</svg>
