<svg width="87" height="29" viewBox="0 0 87 29" version="1.1" xmlns="http://www.w3.org/2000/svg" xmlns:xlink="http://www.w3.org/1999/xlink">
<title>belkart</title>
<desc>Created using Figma</desc>
<g id="Canvas" transform="translate(-33799 16236)">
<g id="belkart">
<g id="Group">
<g id="Vector">
<use xlink:href="#path0_fill" transform="translate(33837.6 -16225.6)" fill="#595959"/>
</g>
<g id="Vector">
<use xlink:href="#path1_fill" transform="translate(33799.9 -16235.7)" fill="#595959"/>
</g>
</g>
</g>
</g>
<defs>
<path id="path0_fill" d="M 14.4237 0.788886L 14.3199 2.54516C 14.2853 3.14395 14.2468 3.66144 14.2062 4.10476C 14.1425 4.8354 14.0689 6.58838 13.1218 6.58838C 13.1102 6.58838 13.0976 6.58838 13.0844 6.58838C 12.9993 6.58728 12.891 6.65979 12.891 6.7768L 12.891 7.84749C 12.891 7.87001 12.891 7.88484 12.891 7.90462C 12.891 8.02822 12.9734 8.11282 13.0861 8.11282C 13.1025 8.11282 13.1542 8.11282 13.1707 8.11282C 13.8837 8.11007 14.5094 8.03481 15.0489 7.21958C 15.2181 6.96413 15.3664 6.67682 15.4724 6.35105C 15.5796 6.02584 15.6647 5.65997 15.7268 5.25785C 15.7878 4.85572 15.8378 4.4124 15.8784 3.92733C 15.9169 3.4439 15.9559 2.91872 15.9938 2.34849L 16.0399 1.53985L 18.2934 1.53985L 18.2934 7.9178C 18.2934 8.02493 18.3867 8.12326 18.5016 8.11282L 19.8403 8.11282C 19.9799 8.11282 20.0496 8.01723 20.0496 7.90517L 20.0496 0.58563C 20.0507 0.282389 19.7969 0.0148543 19.4393 0.0148543L 15.0071 0.0148543C 14.6665 0.0148543 14.4649 0.3126 14.4501 0.559808C 14.4452 0.630124 14.4281 0.705935 14.4237 0.788886ZM 0.570775 8.11337L 3.60483 8.11337C 5.10401 8.16611 6.32906 7.12564 6.37795 5.57208C 6.3796 5.43913 6.38729 5.28037 6.35048 5.10623C 6.08515 3.83503 5.07984 2.96102 3.8004 2.96102L 1.75627 2.96102L 1.75627 1.51733L 5.24519 1.51733C 5.37704 1.52062 5.45669 1.42613 5.4534 1.29813L 5.4534 0.269751C 5.45614 0.129117 5.40395 0.0121073 5.24519 0.0154034L 0.613075 0.0154034C 0.139535 0.0154034 0 0.362594 0 0.58563L 0 7.5437C 0 7.85737 0.247207 8.11337 0.570775 8.11337ZM 37.453 7.87056L 37.453 5.16281L 39.3725 5.16281C 40.7002 5.16281 41.9445 4.07675 41.9231 2.54516C 41.9231 2.1771 41.8308 1.83155 41.6957 1.52831C 41.377 0.815256 40.7958 0.338422 40.1091 0.129119C 39.8279 0.0434206 39.5219 0.0176008 39.2203 0.0154034L 36.2895 0.0154034C 35.9775 0.0154034 35.7165 0.230749 35.7028 0.570797C 35.7011 0.617492 35.6962 0.66748 35.6968 0.720218L 35.6968 7.91835C 35.6968 8.02987 35.7803 8.11337 35.8956 8.11392L 37.2586 8.11392C 37.3294 8.11392 37.397 8.07162 37.4294 8.01009C 37.4481 7.97109 37.453 7.92659 37.453 7.87056ZM 40.0872 2.58966C 40.0866 3.15439 39.6372 3.65045 39.0264 3.6499L 37.453 3.64825L 37.453 1.52886L 38.9538 1.52886C 39.6345 1.50799 40.0883 2.02437 40.0872 2.58966ZM 32.8912 6.42686L 33.3417 7.92879C 33.3801 8.06667 33.4538 8.11337 33.5406 8.11337L 35.0024 8.11337C 35.1392 8.11282 35.2276 7.99855 35.1947 7.86177L 32.7989 0.649353C 32.6863 0.297769 32.5171 0.0154034 32.1084 0.0154034L 31.0712 0.0181486C 30.8652 0.00496422 30.6845 0.075282 30.5444 0.260413C 30.473 0.353802 30.4115 0.481801 30.3615 0.649353L 27.9674 7.85243C 27.9141 8.01284 28.0487 8.11337 28.1558 8.11337L 29.5611 8.11337C 29.6056 8.11337 29.7017 8.11996 29.761 7.99416C 29.7737 7.96615 29.7874 7.92659 29.7956 7.89363L 30.2461 6.42686L 32.8912 6.42686ZM 30.662 4.99471L 31.1009 3.53124L 31.5398 1.88319L 31.609 1.88319L 32.0364 3.53124L 32.4754 4.99471L 30.662 4.99471ZM 25.7997 3.80482L 25.7997 3.74714C 26.048 3.59661 26.2562 3.4005 26.4199 3.15988C 26.5852 2.91927 26.7061 2.63415 26.7819 2.30674L 27.3131 0.244482C 27.3329 0.152741 27.2708 0.0154034 27.1198 0.0154034L 25.8573 0.0154034C 25.8151 0.0137553 25.7711 0.0214449 25.7244 0.0406722C 25.6788 0.057702 25.6458 0.104397 25.6266 0.177461L 25.1069 2.12216C 25.0454 2.35838 24.9625 2.54736 24.8608 2.68579C 24.7581 2.82698 24.6444 2.9308 24.5202 2.99782C 24.3961 3.06539 24.2697 3.10989 24.1423 3.13077C 24.0137 3.14999 23.8918 3.15988 23.7781 3.15769L 22.8656 3.15769L 22.8656 0.208224C 22.8656 0.0835216 22.7612 0.0154034 22.6728 0.0154034L 21.3175 0.0154034C 21.2027 0.0154034 21.1099 0.0983541 21.1099 0.200533L 21.1099 7.92879C 21.1099 8.03591 21.2109 8.11337 21.3175 8.11337L 22.6574 8.11337C 22.7678 8.11337 22.865 8.03866 22.865 7.92879L 22.865 4.49755L 23.8006 4.49755C 24.0681 4.49371 24.2955 4.51897 24.4807 4.57281C 24.6653 4.625 24.8191 4.72113 24.9427 4.86177C 25.0641 5.0024 25.1657 5.20456 25.2448 5.46825L 25.9568 7.97493C 25.9952 8.07766 26.0661 8.11337 26.1403 8.11337L 27.4812 8.11337C 27.651 8.12161 27.7004 7.95845 27.6823 7.88264L 26.9659 5.20237C 26.922 5.02932 26.8715 4.87111 26.8193 4.73102C 26.7654 4.58819 26.6979 4.46129 26.6155 4.34758C 26.5341 4.23386 26.4265 4.13223 26.2957 4.04159C 26.1655 3.95314 25.9996 3.87404 25.7997 3.80482ZM 12.5076 7.84749L 12.5076 6.78394C 12.5076 6.70484 12.4483 6.58838 12.312 6.58838L 9.17359 6.58838C 8.98242 6.58838 8.60337 6.45543 8.60337 5.96871L 8.60337 4.42833L 11.939 4.42833C 12.0786 4.42833 12.1379 4.30912 12.1379 4.23881L 12.1379 3.15659C 12.1379 3.04342 12.0588 2.96047 11.9187 2.96047L 8.60337 2.96047L 8.60337 2.09689C 8.60337 1.72993 8.90826 1.52831 9.17359 1.52831L 12.3027 1.52831C 12.4488 1.52831 12.5076 1.4157 12.5076 1.33275L 12.5076 0.211523C 12.5076 0.100554 12.4246 0.0159527 12.2884 0.0154034L 9.03021 2.16445e-05C 7.80626 -0.00547185 6.8471 1.01961 6.8471 2.15292L 6.8471 5.98794C 6.8471 7.16409 7.84087 8.11337 8.98462 8.11337L 12.3087 8.11337C 12.4263 8.11337 12.5049 8.02712 12.5076 7.9178C 12.5081 7.89803 12.5076 7.87166 12.5076 7.84749ZM 46.0685 1.52886L 46.0685 7.92879C 46.0685 8.03866 45.9707 8.11337 45.8603 8.11337L 44.521 8.11337C 44.4144 8.11337 44.3122 8.03591 44.3122 7.92879L 44.3122 1.52886L 42.2104 1.52886C 42.1033 1.52886 42.0253 1.42723 42.0253 1.32121L 42.0253 0.223606C 42.0253 0.113186 42.1005 0.0154034 42.2104 0.0154034C 44.2089 0.0154034 46.2069 0.0154034 48.2055 0.0154034C 48.3153 0.0154034 48.3906 0.113186 48.3906 0.223606L 48.3906 1.32121C 48.3906 1.42723 48.3126 1.52886 48.2055 1.52886L 46.0685 1.52886ZM 4.55191 5.47979C 4.57169 6.11703 4.06849 6.57739 3.43124 6.57739L 1.75627 6.57739L 1.75627 4.42833L 3.44278 4.42833C 4.03827 4.42833 4.53214 4.84199 4.55191 5.47979Z"/>
<path id="path1_fill" fill-rule="evenodd" d="M 18.1092 21.9493L 16.3839 25.0321L 16.3839 23.6746L 18.1092 21.9493ZM 21.5301 9.83565L 17.603 13.7624C 17.4894 13.876 17.4894 14.0622 17.603 14.1758L 19.529 16.1015L 22.2295 16.3864L 16.6759 16.3864C 16.5156 16.3864 16.3839 16.5181 16.3839 16.6788L 16.3839 19.287L 18.1329 21.5117L 14.2065 17.585C 14.0929 17.4714 13.9071 17.4714 13.7934 17.585L 11.9202 19.4583L 11.5715 22.2413L 11.5715 16.688C 11.5715 16.5273 11.4398 16.3956 11.2795 16.3956L 8.47415 16.3956L 6.40548 18.0841L 10.3322 14.1574C 10.4458 14.0438 10.4458 13.8576 10.3322 13.744L 8.36619 11.778L 5.70212 11.5245L 11.2557 11.5245C 11.4164 11.5245 11.5478 11.3932 11.5478 11.2321L 11.5478 8.58008L 9.8161 6.40521L 13.7435 10.3323C 13.8568 10.4459 14.0433 10.4459 14.157 10.3323L 16.0869 8.40167L 16.3726 5.67849L 16.3726 11.2318C 16.3726 11.3925 16.5039 11.5241 16.6646 11.5241L 19.4295 11.5241L 21.5301 9.83565ZM 22.5219 19.0944L 22.5219 16.6788L 23.5099 20.0824L 22.5219 19.0944ZM 27.8501 15.7422L 23.632 11.5241L 21.9435 9.83565L 25.0182 11.5241C 25.1789 11.5241 25.3102 11.3925 25.3102 11.2318L 25.3102 5.67849C 25.3102 5.51778 25.1789 5.38645 25.0182 5.38645L 19.1028 5.38645L 20.0635 4.42539L 19.1028 5.38645L 16.6646 5.38645L 20.0635 4.42539C 20.1771 4.31177 20.1771 4.12593 20.0635 4.0123L 16.1364 0.0852212C 16.0228 -0.0284071 15.8366 -0.0284071 15.7233 0.0852212L 11.5478 4.26079L 9.763 6.06716L 9.76158 6.06893L 9.76123 6.06893L 9.76406 6.06362L 9.77326 6.04663L 11.5478 2.87885C 11.5478 2.71814 11.4164 2.58681 11.2557 2.58681L 5.70176 2.58681C 5.54141 2.58681 5.41008 2.71814 5.41008 2.87885L 5.41008 8.8215L 5.41008 8.82185L 5.41008 11.2321L 4.42566 7.83743C 4.31168 7.7238 4.12548 7.7238 4.01221 7.83743L 0.0854867 11.7641C -0.0284955 11.8778 -0.0284955 12.064 0.0854867 12.1776L 5.99203 18.0841L 2.92584 16.3956C 2.76513 16.3956 2.6338 16.5273 2.6338 16.688L 2.6338 22.2413C 2.6338 22.402 2.76513 22.5333 2.92584 22.5333L 8.84477 22.5333L 11.2795 22.5333L 7.88689 23.4916C 7.77327 23.6052 7.77327 23.7914 7.88689 23.905L 11.814 27.8317C 11.9272 27.9454 12.1134 27.9454 12.2271 27.8317L 16.3839 23.6746L 16.3839 25.0321C 16.3839 25.1928 16.5156 25.3245 16.6759 25.3245L 22.2295 25.3245C 22.3902 25.3245 22.5219 25.1928 22.5219 25.0321L 22.5219 19.0944L 23.5099 20.0824C 23.6235 20.196 23.8094 20.196 23.9233 20.0824L 27.8501 16.1556C 27.9637 16.0417 27.9637 15.8558 27.8501 15.7422Z"/>
</defs>
</svg>
