<svg width="12" height="15" viewBox="0 0 12 15" version="1.1" xmlns="http://www.w3.org/2000/svg" xmlns:xlink="http://www.w3.org/1999/xlink">
  <title>Canvas</title>
  <desc>Created using Figma</desc>
  <g id="Canvas" transform="translate(-47070 -4701)">
    <g id="Vector 12">
      <use xlink:href="#path0_stroke" transform="matrix(0.753985 0.656892 -0.656892 0.753985 47077.8 4702.09)"/>
    </g>
    <g id="Vector 13">
      <use xlink:href="#path1_stroke" transform="translate(47070 4715)"/>
    </g>
  </g>
  <defs>
    <path id="path0_stroke" d="M 3.62493 0L 4.12493 0L 4.12493 -0.5L 3.62493 -0.5L 3.62493 0ZM 0 0L 0 -0.5L -0.5 -0.5L -0.5 0L 0 0ZM 0 8.42585L -0.5 8.42585L -0.5 8.54858L -0.443171 8.65736L 0 8.42585ZM 1.81247 11.8953L 1.3693 12.1268L 1.81247 12.9752L 2.25564 12.1268L 1.81247 11.8953ZM 3.62493 8.42585L 4.06811 8.65736L 4.12493 8.54858L 4.12493 8.42585L 3.62493 8.42585ZM 3.62493 -0.5L 0 -0.5L 0 0.5L 3.62493 0.5L 3.62493 -0.5ZM -0.5 0L -0.5 8.42585L 0.5 8.42585L 0.5 0L -0.5 0ZM -0.443171 8.65736L 1.3693 12.1268L 2.25564 11.6638L 0.443171 8.19433L -0.443171 8.65736ZM 2.25564 12.1268L 4.06811 8.65736L 3.18176 8.19433L 1.3693 11.6638L 2.25564 12.1268ZM 4.12493 8.42585L 4.12493 0L 3.12493 0L 3.12493 8.42585L 4.12493 8.42585ZM 3.62493 7.92585L 0 7.92585L 0 8.92585L 3.62493 8.92585L 3.62493 7.92585Z"/>
    <path id="path1_stroke" d="M 0 0.5L 12 0.5L 12 -0.5L 0 -0.5L 0 0.5Z"/>
  </defs>
</svg>
