<svg width="10" height="7" viewBox="0 0 10 7" version="1.1" xmlns="http://www.w3.org/2000/svg" xmlns:xlink="http://www.w3.org/1999/xlink">
<title>Vector 2</title>
<desc>Created using Figma</desc>
<g id="Canvas" transform="translate(-44282 1646)">
<rect x="44282" y="-1646" width="10" height="7" fill="#E5E5E5"/>
<clipPath id="clip-0" clip-rule="evenodd">
<path d="M 43262 -1683L 44582 -1683L 44582 1419L 43262 1419L 43262 -1683Z" fill="#FFFFFF"/>
</clipPath>
<g id="product page 1320" clip-path="url(#clip-0)">
<path d="M 43262 -1683L 44582 -1683L 44582 1419L 43262 1419L 43262 -1683Z" fill="#FFFFFF"/>
<g id="header">
<g id="bg">
<use xlink:href="#path0_fill" transform="translate(43262 -1683)" fill="#FFFFFF"/>
</g>
<g id="Group">
<g id="Group">
<g id="Vector 2">
<use xlink:href="#path1_stroke" transform="matrix(6.12323e-17 1 -1 6.12323e-17 44291 -1644.88)"/>
</g>
</g>
</g>
</g>
</g>
</g>
<defs>
<path id="path0_fill" d="M 0 0L 1320 0L 1320 80L 0 80L 0 0Z"/>
<path id="path1_stroke" d="M 4 4L 4.70711 4.70711L 5.41421 4L 4.70711 3.29289L 4 4ZM -0.707107 0.707107L 3.29289 4.70711L 4.70711 3.29289L 0.707107 -0.707107L -0.707107 0.707107ZM 3.29289 3.29289L -0.707107 7.29289L 0.707107 8.70711L 4.70711 4.70711L 3.29289 3.29289Z"/>
</defs>
</svg>
