<svg width="253" height="254" viewBox="0 0 253 254" version="1.1" xmlns="http://www.w3.org/2000/svg" xmlns:xlink="http://www.w3.org/1999/xlink">
<title>Heraldry</title>
<desc>Created using Figma</desc>
<g id="Canvas" transform="translate(-33000 -7741)">
<g id="Heraldry">
<g id="Group">
<g id="Group">
<g id="Group">
<g id="Group">
<g id="Group">
<g id="Group">
<g id="Group">
<g id="Vector">
<use xlink:href="#path0_fill" transform="translate(33053.2 7779.04)"/>
</g>
</g>
<g id="Group">
<g id="Vector">
<use xlink:href="#path1_fill" transform="translate(33086.4 7767.62)"/>
</g>
</g>
<g id="Group">
<g id="Vector">
<use xlink:href="#path2_fill" transform="translate(33109.5 7761.45)"/>
</g>
</g>
<g id="Group">
<g id="Vector">
<use xlink:href="#path3_fill" transform="translate(33135.3 7762.18)"/>
</g>
</g>
<g id="Group">
<g id="Vector">
<use xlink:href="#path4_fill" transform="translate(33158.1 7771)"/>
</g>
</g>
<g id="Group">
<g id="Vector">
<use xlink:href="#path5_fill" transform="translate(33178.1 7787.49)"/>
</g>
</g>
<g id="Group">
<g id="Vector">
<use xlink:href="#path6_fill" transform="translate(33203.4 7837.1)"/>
</g>
</g>
<g id="Group">
<g id="Vector">
<use xlink:href="#path7_fill" transform="translate(33205.6 7868.57)"/>
</g>
</g>
<g id="Group">
<g id="Vector">
<use xlink:href="#path8_fill" transform="translate(33200 7889.92)"/>
</g>
</g>
<g id="Group">
<g id="Vector">
<use xlink:href="#path9_fill" transform="translate(33192.2 7909.89)"/>
</g>
</g>
<g id="Group">
<g id="Vector">
<use xlink:href="#path10_fill" transform="translate(33175.1 7923.89)"/>
</g>
</g>
<g id="Group">
<g id="Vector">
<use xlink:href="#path11_fill" transform="translate(33148.5 7938.25)"/>
</g>
</g>
<g id="Group">
<g id="Vector">
<use xlink:href="#path12_fill" transform="translate(33090.6 7941.73)"/>
</g>
</g>
<g id="Group">
<g id="Vector">
<use xlink:href="#path13_fill" transform="translate(33060.5 7932.39)"/>
</g>
</g>
<g id="Group">
<g id="Vector">
<use xlink:href="#path14_fill" transform="translate(33042.5 7908.75)"/>
</g>
</g>
<g id="Group">
<g id="Vector">
<use xlink:href="#path15_fill" transform="translate(33030.2 7891.38)"/>
</g>
</g>
<g id="Group">
<g id="Vector">
<use xlink:href="#path16_fill" transform="translate(33023.1 7881.53)"/>
</g>
</g>
<g id="Group">
<g id="Vector">
<use xlink:href="#path17_fill" transform="translate(33021.3 7858.33)"/>
</g>
</g>
<g id="Group">
<g id="Vector">
<use xlink:href="#path18_fill" transform="translate(33022.4 7828.08)"/>
</g>
</g>
</g>
<g id="Group">
<g id="Group">
<g id="Vector">
<use xlink:href="#path19_fill" transform="translate(33199.7 7811.59)"/>
</g>
</g>
</g>
<g id="Group">
<g id="Group">
<g id="Vector">
<use xlink:href="#path20_fill" transform="translate(33123.6 7956.25)"/>
</g>
</g>
</g>
<g id="Group">
<g id="Group">
<g id="Vector">
<use xlink:href="#path21_fill" transform="translate(33040.7 7807.89)"/>
</g>
</g>
</g>
<g id="Group">
<g id="Vector">
<use xlink:href="#path22_fill" transform="translate(33000 7741)"/>
</g>
</g>
<g id="Group">
<g id="Vector">
<use xlink:href="#path23_fill" transform="translate(33060.1 7799.24)"/>
</g>
</g>
</g>
<g id="Group">
<g id="Group">
<g id="Vector">
<use xlink:href="#path24_fill" transform="translate(33124.1 7842.47)"/>
</g>
</g>
<g id="Group">
<g id="Vector">
<use xlink:href="#path25_fill" transform="translate(33096.4 7817.26)"/>
</g>
</g>
</g>
</g>
</g>
</g>
</g>
</g>
</g>
<defs>
<path id="path0_fill" d="M 11.1485 3.05052L 14.94 -1.53875e-06L 30.357 19.3116L 27.4694 21.631L 9.79257 16.4627L 19.2085 28.2614L 15.417 31.312L 0 12.0004L 2.88755 9.68099L 20.5393 14.824L 11.1485 3.05052Z"/>
<path id="path1_fill" d="M 17.5262 21.9335L 14.5633 18.3031L 5.37336 21.8074L 5.57424 26.4967L 0.677951 28.3623L 0 2.14293L 5.62445 -3.84688e-07L 22.4727 20.0427L 17.5262 21.9335ZM 5.2227 16.9922L 11.5502 14.5719L 4.82096 6.32794L 5.2227 16.9922Z"/>
<path id="path2_fill" d="M 18.0786 -3.84688e-07L 18.4301 4.66402L 11.8013 5.16824L 13.3079 25.1857L 8.46179 25.5387L 6.95524 5.52119L 0.35153 6.02541L 3.06508e-06 1.36139L 18.0786 -3.84688e-07Z"/>
<path id="path3_fill" d="M 1.51428 22.9672C 0.108163 21.0763 -0.318687 18.8578 0.233714 16.2863L 3.67366 0L 8.39419 1.00844L 5.02956 16.9165C 4.50227 19.4376 5.58197 21.3284 8.64529 21.9839C 11.7086 22.6394 13.4662 21.3536 13.9935 18.8326L 17.3331 2.92447L 22.0787 3.9329L 18.6387 20.2192C 18.0863 22.7907 16.8058 24.6311 14.7719 25.7908C 12.7381 26.9505 10.3527 27.2278 7.64092 26.6479C 4.95424 26.0933 2.92039 24.858 1.51428 22.9672Z"/>
<path id="path4_fill" d="M 11.8013 28.211L 11.6255 18.2779L 8.38646 16.4879L 4.24344 24.0008L 3.06508e-06 21.631L 11.9771 -3.58269e-15L 20.5895 4.81529C 22.5983 5.92457 23.8788 7.58848 24.5065 9.75662C 25.1343 11.9248 24.8832 14.0173 23.8035 15.9837C 22.3221 18.6813 19.2838 20.2192 16.1703 19.967L 16.4214 30.7825L 11.8013 28.211ZM 14.0109 6.35315L 10.4705 12.7567L 14.8395 15.2022C 16.4465 16.0846 18.5557 15.3787 19.5349 13.6139C 20.5142 11.8491 19.9618 9.68099 18.3799 8.79861L 14.0109 6.35315Z"/>
<path id="path5_fill" d="M 6.72925 17.6729L 14.0863 25.0344L 10.8221 28.3371L -3.06508e-06 17.5468L 17.3755 -1.53875e-06L 28.072 10.6642L 24.8079 13.9668L 17.5764 6.73132L 13.8352 10.4877L 20.464 17.093L 17.25 20.3452L 10.6212 13.7399L 6.72925 17.6729Z"/>
<path id="path6_fill" d="M 26.0884 9.68099C 26.7413 13.0088 26.0884 16.0089 24.2052 18.6813C 22.322 21.3789 19.6856 23.068 16.2456 23.7235C 12.8308 24.4042 9.74236 23.8495 6.98035 22.0343C 4.24345 20.2696 2.51092 17.7233 1.88319 14.3954L 3.06508e-06 4.73965L 24.2052 3.0775e-06L 26.0884 9.68099ZM 6.45306 13.5131C 6.85481 15.6308 7.88427 17.1938 9.51637 18.2527C 11.1987 19.2864 13.107 19.6141 15.3668 19.1603C 17.6015 18.7317 19.2838 17.6981 20.4138 16.1098C 21.5688 14.5215 21.9454 12.6811 21.5186 10.5634L 20.5644 5.69766L 5.4989 8.64735L 6.45306 13.5131Z"/>
<path id="path7_fill" d="M 5.69977 5.34472L 4.62008 15.7064L 6.13017e-06 15.2274L 1.58188 -2.86615e-14L 26.0884 2.5463L 24.5316 17.5972L 19.9116 17.1182L 20.9662 6.933L 15.7434 6.37836L 14.7893 15.7064L 10.2445 15.2274L 11.1987 5.89936L 5.69977 5.34472Z"/>
<path id="path8_fill" d="M 10.0398 0.00175847L 10.8181 4.76661C 8.13145 4.7414 6.27338 6.07758 5.26901 8.72473C 4.28975 11.271 4.86726 12.8089 6.27338 13.3635C 7.10198 13.6913 7.85525 13.5652 8.5583 13.0106C 9.28647 12.4559 10.2908 11.3719 11.5212 9.68274C 12.9524 7.84234 13.9066 6.7835 15.4884 5.72464C 17.0954 4.7162 18.9535 4.56493 21.0627 5.37168C 23.1216 6.17843 24.5277 7.53983 25.1806 9.50628C 25.8585 11.4727 25.7832 13.54 24.9797 15.6073C 23.5485 19.3385 20.5103 21.5319 16.6435 21.8596L 15.9153 17.1704C 18.2504 17.0191 19.8072 15.9098 20.5605 13.893C 21.2887 12.0021 20.7865 10.4895 19.4306 9.96007C 18.7024 9.68275 17.9994 9.75838 17.3214 10.1618C 16.6435 10.6156 15.7144 11.5988 14.5343 13.0862L 13.4044 14.4728C 13.1784 14.8006 12.7766 15.2039 12.2745 15.7334C 11.7974 16.2628 11.3956 16.6662 11.019 16.9183C 10.3159 17.4477 9.11071 18.1788 8.15656 18.3049C 7.17731 18.5066 5.89673 18.4057 4.56594 17.9015C 2.43166 17.0696 1.05066 15.6325 0.397823 13.5904C -0.255015 11.5484 -0.104363 9.30458 0.849785 6.83391C 2.63254 2.29595 6.02228 -0.0738743 10.0398 0.00175847Z"/>
<path id="path9_fill" d="M 23.2511 13.6139L 20.5644 17.6729L -6.13017e-06 4.05896L 2.68668 6.15501e-06L 23.2511 13.6139Z"/>
<path id="path10_fill" d="M 4.49932 21.9756L 3.21876 20.5638C 0.858498 17.9418 -0.19609 15.0426 0.0298922 11.8912C 0.255875 8.73983 1.6871 5.96664 4.34867 3.59681C 7.18601 1.05051 10.3498 -0.159618 13.865 0.0168585C 17.4054 0.218546 20.3432 1.65557 22.7035 4.30272C 25.1139 6.97507 26.1936 10.076 26.043 13.6056C 25.8421 17.1603 24.3858 20.1352 21.674 22.5806C 18.234 25.6816 13.7395 26.69 9.84757 25.4799L 11.3541 20.9167C 13.5637 21.6478 16.376 20.9924 18.5605 19.0259C 20.3181 17.4376 21.2471 15.572 21.3225 13.4039C 21.448 11.2609 20.6947 9.3197 19.1129 7.55493C 17.5561 5.81538 15.698 4.88257 13.5637 4.78173C 11.4044 4.68089 9.39561 5.51284 7.48732 7.20197C 4.67509 9.72306 3.97204 12.7484 5.27771 15.5216L 10.8268 10.5298L 13.6893 13.7316L 4.49932 21.9756Z"/>
<path id="path11_fill" d="M 13.9607 28.3623L 9.46615 30.2279L 6.13017e-06 7.3868L 3.41485 5.94978L 18.9574 15.8325L 13.1572 1.8656L 17.6518 6.15501e-06L 27.1179 22.8411L 23.7031 24.2781L 8.18559 14.4459L 13.9607 28.3623Z"/>
<path id="path12_fill" d="M 5.57459 5.29429L 3.81695 2.0673L 7.93485 3.0775e-06L 9.79292 3.40348C 11.9021 2.87405 14.0364 2.89926 16.1958 3.47911C 19.6357 4.41191 22.1969 6.37836 23.9796 9.42888C 25.7372 12.5046 26.139 15.7568 25.21 19.2359C 24.2809 22.715 22.2973 25.337 19.234 27.0765C 16.1707 28.8413 12.9567 29.2447 9.51672 28.3371C 6.07677 27.4043 3.51563 25.4378 1.75799 22.3621C -0.0247604 19.3116 -0.451618 16.0593 0.477421 12.5802C 1.33113 9.45409 3.03856 7.05906 5.57459 5.29429ZM 12.2034 7.81539L 15.0156 12.9836L 10.8977 15.0509L 7.88463 9.55493C 6.55384 10.6642 5.67502 12.1012 5.19795 13.8408C 4.57022 16.135 4.82131 18.2023 5.901 20.0679C 6.95559 21.9335 8.61279 23.1688 10.7722 23.7739C 12.9567 24.3537 14.9905 24.1016 16.8486 23.0428C 18.7067 21.9839 19.9621 20.2948 20.5648 18.0006C 21.1674 15.7568 20.9163 13.6643 19.8617 11.7987C 18.8071 9.9331 17.1499 8.69776 14.9905 8.0927C 14.0866 7.84059 13.1576 7.73975 12.2034 7.81539Z"/>
<path id="path13_fill" d="M 26.0884 7.59908C 26.691 9.86806 26.2893 12.0866 24.833 14.28L 15.6681 28.146L 11.6507 25.4736L 20.6146 11.9354C 22.0458 9.79243 21.7194 7.62429 19.1081 5.88474C 16.4967 4.14519 14.3876 4.69982 12.9814 6.84275L 4.04258 20.4062L -1.53254e-06 17.7087L 9.16484 3.84266C 10.5961 1.67452 12.4793 0.41397 14.8144 0.0862282C 17.1496 -0.241514 19.4345 0.363545 21.7696 1.92662C 24.0295 3.43928 25.4858 5.3301 26.0884 7.59908Z"/>
<path id="path14_fill" d="M 17.1496 4.10938L 14.6135 8.04228L 20.7402 15.7568L 25.1343 14.1433L 28.3985 18.2527L 3.76638 26.9505L 7.66271e-07 22.236L 13.8352 6.15501e-06L 17.1496 4.10938ZM 16.2205 17.3955L 12.0022 12.1012L 6.25218 21.0763L 16.2205 17.3955Z"/>
<path id="path15_fill" d="M 18.405 10.513L 14.7391 1.81519L 19.0076 0L 24.5568 13.1853L 1.88319 22.8159L -7.66271e-07 18.3283L 18.405 10.513Z"/>
<path id="path16_fill" d="M 1.00437 9.83226L 7.66271e-07 5.0674L 24.1299 6.15501e-06L 25.1343 4.76486L 1.00437 9.83226Z"/>
<path id="path17_fill" d="M 3.83136e-07 -1.53875e-06L 4.6452 -1.53875e-06L 4.6452 6.68089L 24.6572 6.68089L 24.6572 11.5718L 4.6452 11.5718L 4.6452 18.2275L 3.83136e-07 18.2275L 3.83136e-07 -1.53875e-06Z"/>
<path id="path18_fill" d="M 5.90065 -1.53875e-06L 18.0535 12.2777L 27.2937 14.8997L 25.988 19.5637L 16.7478 16.9417L -7.66271e-07 20.9503L 1.50655 15.656L 12.8559 13.3114L 4.41921 5.3195L 5.90065 -1.53875e-06Z"/>
<path id="path19_fill" d="M 10.4454 21.3536C 9.08952 18.0258 7.50765 14.7736 5.77512 11.6222C 4.04258 8.49608 2.10918 5.44556 6.13017e-06 2.52109L 3.46507 1.43307e-14C 5.64957 3.02531 7.68341 6.25231 9.49127 9.50452C 11.3242 12.7819 12.9563 16.2106 14.3624 19.6897L 10.4454 21.3536Z"/>
<path id="path20_fill" d="M 2.76201 6.2523C 1.83297 6.2523 0.929042 6.2271 3.06508e-06 6.20189L 0.125549 1.91604C 3.69105 2.01688 7.30677 1.91602 10.8723 1.58828C 14.4127 1.26054 18.0033 0.731113 21.4935 -3.0775e-06L 22.3723 4.18502C 18.7063 4.96656 14.9651 5.52119 11.2489 5.84893C 8.43668 6.12625 5.59935 6.2523 2.76201 6.2523Z"/>
<path id="path21_fill" d="M 3.86681 20.9503L -1.53254e-06 19.1351C 1.58188 15.7316 3.38974 12.4038 5.37336 9.2272C 7.35699 6.05062 9.54148 2.92446 11.8766 -3.07751e-06L 15.2162 2.67236C 12.9814 5.47077 10.8974 8.44566 9.01419 11.471C 7.1059 14.5215 5.39847 17.6981 3.86681 20.9503Z"/>
<path id="path22_fill" d="M 126.5 254C 109.426 254 92.8537 250.647 77.2609 244.016C 62.1954 237.613 48.6616 228.461 37.0611 216.789C 25.4607 205.116 16.321 191.553 9.94323 176.426C 3.33952 160.77 0 144.156 0 127.013C 0 109.869 3.33952 93.23 9.94323 77.574C 16.321 62.4474 25.4356 48.8588 37.0611 37.2113C 48.6867 25.5639 62.1954 16.3871 77.2609 9.98352C 92.8537 3.35305 109.426 0 126.5 0C 143.574 0 160.146 3.35305 175.739 9.98352C 190.805 16.3871 204.338 25.5387 215.939 37.2113C 227.539 48.884 236.679 62.4474 243.057 77.574C 249.66 93.23 253 109.869 253 127.013C 253 144.156 249.66 160.795 243.057 176.451C 236.679 191.578 227.564 205.166 215.939 216.814C 204.313 228.461 190.805 237.638 175.739 244.042C 160.121 250.647 143.574 254 126.5 254ZM 126.5 4.28586C 109.978 4.28586 93.9836 7.53806 78.9181 13.9164C 64.3548 20.0931 51.298 28.9421 40.0742 40.2114C 28.8504 51.4807 20.0371 64.6156 13.8854 79.2127C 7.50764 94.3645 4.26856 110.424 4.26856 127.013C 4.26856 143.601 7.50764 159.661 13.8603 174.787C 20.012 189.41 28.8253 202.519 40.0491 213.789C 51.2729 225.058 64.3548 233.907 78.893 240.084C 93.9585 246.487 109.978 249.714 126.475 249.714C 142.972 249.714 158.991 246.462 174.057 240.084C 188.62 233.907 201.677 225.058 212.901 213.789C 224.124 202.519 232.938 189.384 239.09 174.787C 245.467 159.661 248.681 143.576 248.681 127.013C 248.681 110.449 245.442 94.3645 239.09 79.2379C 232.938 64.6156 224.124 51.5059 212.901 40.2366C 201.677 28.9673 188.595 20.1183 174.057 13.9416C 158.991 7.53806 142.997 4.28586 126.5 4.28586Z"/>
<path id="path23_fill" d="M 66.3635 133.265C 48.6365 133.265 31.964 126.332 19.4345 113.752C 6.90502 101.171 7.13646e-15 84.4314 7.13646e-15 66.6325C 7.13646e-15 48.8335 6.90502 32.0935 19.4345 19.5132C 31.964 6.933 48.6365 -2.14961e-14 66.3635 -2.14961e-14C 84.0906 -2.14961e-14 100.763 6.933 113.293 19.5132C 125.822 32.0935 132.727 48.8335 132.727 66.6325C 132.727 84.4314 125.822 101.171 113.293 113.752C 100.738 126.332 84.0655 133.265 66.3635 133.265ZM 66.3635 4.28586C 49.7915 4.28586 34.1987 10.7651 22.4727 22.5386C 10.7467 34.3121 4.29367 49.968 4.29367 66.6072C 4.29367 83.2465 10.7467 98.9024 22.4727 110.676C 34.1987 122.449 49.7915 128.929 66.3635 128.929C 82.9356 128.929 98.5284 122.449 110.254 110.676C 121.98 98.9024 128.433 83.2465 128.433 66.6072C 128.433 49.968 121.98 34.3121 110.254 22.5386C 98.5284 10.7903 82.9356 4.28586 66.3635 4.28586Z"/>
<path id="path24_fill" d="M 6.50327 69.7838L 5.4738 69.7838C 2.4607 69.7838 3.06508e-06 67.3132 3.06508e-06 64.2878L 3.06508e-06 0L 4.26856 0L 4.26856 64.2878C 4.26856 64.9685 4.82096 65.498 5.4738 65.498L 6.50327 65.498L 6.50327 69.7838Z"/>
<path id="path25_fill" d="M 30.1059 79.843C 24.4061 79.843 22.2718 75.8092 20.7151 72.8848C 20.012 71.5738 19.3592 70.3385 18.5306 69.5065C 17.8526 68.8258 16.0699 67.9938 14.3624 67.1871C 10.0688 65.145 4.72053 62.6239 4.72053 57.7078C 4.72053 53.9009 7.45742 51.4555 11.7009 51.4555C 12.4541 51.4555 13.4585 51.4555 14.3373 51.4303C 13.2828 50.6487 11.8264 49.7411 10.8723 49.1613C 9.81769 48.5058 8.83843 47.8755 8.00982 47.2957C 7.78384 47.1192 7.53275 46.9679 7.30677 46.7915C 3.71616 44.2704 -1.53254e-06 41.6736 -1.53254e-06 36.7575C -1.53254e-06 32.1439 3.23908 29.3455 8.68777 29.2951C 9.76747 29.2951 10.822 29.3707 11.7762 29.4463C 12.2533 29.4968 12.8559 29.522 13.3832 29.5472C 12.655 28.564 11.5502 27.3286 11.0731 26.8244C 10.6714 26.3958 10.3701 26.0429 10.1692 25.7656L 10.0437 25.6143C 9.39083 24.8075 8.18559 23.2697 7.45743 21.3536C 6.47817 18.7317 6.77948 16.2106 8.31114 14.0677C 11.1234 10.1096 16.7729 11.1936 19.8111 11.7735C 20.0622 11.8239 20.3635 11.8743 20.6146 11.9248C 20.8155 11.3701 21.0666 10.4121 21.2172 9.7062C 22.0961 6.07583 23.5524 1.43307e-14 30.1059 1.43307e-14C 36.3832 1.43307e-14 37.9651 6.0002 38.9192 9.60536C 39.1201 10.3365 39.3712 11.3449 39.5972 11.9248C 39.9236 11.8743 40.3002 11.7987 40.6517 11.7483C 43.8155 11.1432 49.1387 10.16 51.9258 14.0677C 53.4574 16.2106 53.7587 18.7317 52.7795 21.3536C 52.0764 23.2697 50.8461 24.8075 50.1932 25.6143L 50.0677 25.7656C 49.8668 26.0177 49.5404 26.3706 49.1638 26.8244C 48.7118 27.3286 47.5819 28.5892 46.8537 29.5472C 47.381 29.522 47.9836 29.4716 48.4607 29.4463C 49.3897 29.3707 50.4694 29.2699 51.5491 29.2951C 56.9978 29.3455 60.2369 32.1439 60.2369 36.7575C 60.2369 41.6736 56.5207 44.2704 52.9301 46.7915C 52.7042 46.9427 52.4531 47.1192 52.2271 47.2957C 51.3985 47.8755 50.3941 48.5058 49.3646 49.1613C 48.4105 49.7411 46.9542 50.6739 45.8996 51.4303C 46.7784 51.4555 47.7828 51.4555 48.536 51.4555C 52.7795 51.4555 55.5164 53.9009 55.5164 57.7078C 55.5164 62.6239 50.1681 65.1702 45.8745 67.1871C 44.1419 67.9938 42.3843 68.851 41.7063 69.5065C 40.8526 70.3637 40.1998 71.599 39.5218 72.8848C 37.9148 75.8344 35.7806 79.843 30.1059 79.843ZM 8.83843 33.5305C 8.78821 33.5305 8.7631 33.5305 8.71288 33.5305C 4.24345 33.5809 4.24345 35.6987 4.24345 36.7071C 4.24345 39.2786 6.22708 40.766 9.71725 43.2367C 9.94323 43.4132 10.1943 43.5645 10.4454 43.7409C 11.1987 44.2704 12.1277 44.8502 13.1321 45.4805C 17.3504 48.1276 19.7609 49.7411 19.7609 52.0353C 19.7609 53.8001 18.7817 55.0102 16.9989 55.4388C 15.9443 55.6909 14.5884 55.7161 11.7009 55.7161C 8.98908 55.7161 8.98909 57.1531 8.98909 57.6826C 8.98909 59.9011 12.9814 61.7667 16.1703 63.3046C 18.405 64.3635 20.3384 65.2711 21.5437 66.4812C 22.8493 67.7922 23.6779 69.3552 24.4814 70.8931C 26.1135 73.9688 27.1179 75.5823 30.1059 75.5823C 33.0939 75.5823 34.0983 73.9688 35.7304 70.8931C 36.5338 69.3552 37.3625 67.7922 38.6681 66.4812C 39.8734 65.2711 41.8068 64.3635 44.0415 63.3046C 47.2555 61.7919 51.2227 59.9011 51.2227 57.6826C 51.2227 57.1531 51.2227 55.7161 48.5109 55.7161C 45.6234 55.7161 44.2675 55.6657 43.2129 55.4388C 41.4301 55.0102 40.4509 53.8001 40.4509 52.0353C 40.4509 49.7663 42.8363 48.1528 47.0797 45.4805C 48.0841 44.8502 49.0131 44.2704 49.7664 43.7409C 50.0175 43.5645 50.2435 43.4132 50.4945 43.2367C 53.9847 40.7913 55.9683 39.2786 55.9683 36.7071C 55.9683 35.6987 55.9683 33.5557 51.4989 33.5305C 50.6201 33.5305 49.691 33.6062 48.8122 33.6818C 47.5568 33.7826 46.3515 33.8835 45.3221 33.7322C 42.786 33.3792 42.1583 31.6649 42.0328 30.9338C 41.6561 29.1438 42.9618 27.3286 46.0251 23.9252C 46.3515 23.5722 46.6528 23.2193 46.7784 23.068L 46.9039 22.9167C 49.7664 19.3368 49.3144 17.6981 48.4858 16.5384C 47.2806 14.8492 43.7904 15.5047 41.4803 15.9333C 40.5011 16.1098 39.7478 16.261 39.095 16.261C 36.2827 16.261 35.5295 13.2862 34.8264 10.6894C 33.6714 6.25231 32.7173 4.28586 30.1561 4.28586C 27.4192 4.28586 26.4902 6.27752 25.4105 10.7146C 24.7828 13.3366 24.0797 16.2863 21.2172 16.2863C 20.6397 16.2863 19.9618 16.1602 19.0328 15.9837C 16.9487 15.5803 13.0317 14.824 11.8013 16.5636C 10.9727 17.7233 10.5207 19.362 13.3832 22.9419L 13.5087 23.0932C 13.6343 23.2445 13.9356 23.5974 14.262 23.9504C 17.3002 27.3538 18.6059 29.169 18.2544 30.959C 18.1037 31.6901 17.476 33.4297 14.9651 33.7574C 13.9356 33.9087 12.7304 33.8078 11.4749 33.707C 10.5459 33.6062 9.66703 33.5305 8.83843 33.5305Z"/>
</defs>
</svg>
