<svg width="139" height="32" viewBox="0 0 139 32" version="1.1" xmlns="http://www.w3.org/2000/svg" xmlns:xlink="http://www.w3.org/1999/xlink">
<title>Frame</title>
<desc>Created using Figma</desc>
<g id="Canvas" transform="translate(-34411 16239)">
<g id="Frame">
<g id="Frame">
<g id="Group">
<g id="mc_hrz_pos">
<g id="Layer 2">
<g id="Layer 1">
<g id="Group">
<g id="Group">
<g id="Vector">
<use xlink:href="#path0_fill" transform="translate(34463 -16228.9)" fill="#585858"/>
</g>
<g id="&#60;Group&#62;">
<g id="Vector">
<use xlink:href="#path1_fill" transform="translate(34435 -16230.8)" fill="#252525"/>
</g>
<g id="&#60;Path&#62;">
<use xlink:href="#path2_fill" transform="translate(34422.8 -16233)" fill="#393939"/>
</g>
<g id="Vector">
<use xlink:href="#path3_fill" transform="translate(34439.5 -16233)" fill="#595959"/>
</g>
<g id="Vector">
<use xlink:href="#path4_fill" transform="translate(34455 -16216.8)" fill="#616161"/>
</g>
</g>
</g>
</g>
</g>
</g>
</g>
</g>
</g>
</g>
</g>
<defs>
<path id="path0_fill" d="M 10.867 9.6066L 10.867 5.31283C 10.867 3.69265 9.83327 2.60203 8.16957 2.58771C 7.69575 2.55709 7.22239 2.65407 6.79882 2.86855C 6.37525 3.08303 6.01699 3.40716 5.76136 3.80714C 5.52844 3.41903 5.1951 3.10091 4.79647 2.8863C 4.39784 2.67169 3.94869 2.56854 3.49633 2.58771C 3.10243 2.5687 2.71038 2.65269 2.35886 2.8314C 2.00735 3.0101 1.70852 3.27735 1.49188 3.60677L 1.49188 2.74802L 6.99097e-07 2.74802L 6.99097e-07 9.6066L 1.5062 9.6066L 1.5062 5.80804C 1.5062 4.61724 2.16481 3.98748 3.18421 3.98748C 4.20362 3.98748 4.6761 4.63155 4.6761 5.79373L 4.6761 9.6066L 6.17371 9.6066L 6.17371 5.80804C 6.17371 4.61724 6.86095 3.98748 7.85172 3.98748C 8.84249 3.98748 9.35792 4.63155 9.35792 5.79373L 9.35792 9.6066L 10.867 9.6066ZM 33.1536 2.75374L 30.7168 2.75374L 30.7168 0.675554L 29.2106 0.675554L 29.2106 2.75374L 27.8189 2.75374L 27.8189 4.1163L 29.2106 4.1163L 29.2106 7.2393C 29.2106 8.83086 29.8262 9.77835 31.5902 9.77835C 32.249 9.78048 32.895 9.59694 33.4543 9.24879L 33.0248 7.97211C 32.6245 8.21044 32.1703 8.34339 31.7047 8.35855C 30.9602 8.35855 30.7139 7.90054 30.7139 7.21354L 30.7139 4.1163L 33.1508 4.1163L 33.1536 2.75374ZM 45.8762 2.58199C 45.5124 2.57139 45.1525 2.65914 44.8345 2.83598C 44.5165 3.01282 44.2521 3.27219 44.0693 3.58673L 44.0693 2.75374L 42.5917 2.75374L 42.5917 9.6066L 44.0836 9.6066L 44.0836 5.76511C 44.0836 4.6201 44.5704 4.0018 45.5469 4.0018C 45.8663 3.99718 46.1835 4.05554 46.4804 4.17355L 46.9385 2.76805C 46.5975 2.64615 46.2383 2.58323 45.8762 2.58199ZM 26.642 3.29762C 25.7974 2.79597 24.8263 2.54757 23.8444 2.58199C 22.1091 2.58199 20.9809 3.41498 20.9809 4.77468C 20.9809 5.89392 21.8113 6.58092 23.3461 6.79561L 24.0477 6.8958C 24.8638 7.0103 25.2532 7.22499 25.2532 7.61143C 25.2532 8.14099 24.7092 8.44442 23.6898 8.44442C 22.8673 8.47054 22.0602 8.21838 21.3989 7.72879L 20.7203 8.88811C 21.5891 9.49535 22.6301 9.80744 23.6898 9.77835C 25.6684 9.77835 26.8167 8.84517 26.8167 7.54273C 26.8167 6.33761 25.9118 5.70786 24.4228 5.49317L 23.7212 5.39298C 23.077 5.3071 22.5587 5.17829 22.5587 4.72029C 22.5587 4.21935 23.0455 3.91878 23.8644 3.91878C 24.6148 3.92987 25.3499 4.13182 26.0006 4.5056L 26.642 3.29762ZM 66.5936 2.58199C 66.2298 2.57139 65.87 2.65914 65.5519 2.83598C 65.2339 3.01282 64.9696 3.27219 64.7867 3.58673L 64.7867 2.75374L 63.3092 2.75374L 63.3092 9.6066L 64.801 9.6066L 64.801 5.76511C 64.801 4.6201 65.2878 4.0018 66.2643 4.0018C 66.5837 3.99718 66.9009 4.05554 67.1978 4.17355L 67.656 2.76805C 67.315 2.64615 66.9557 2.58323 66.5936 2.58199ZM 47.3824 6.18017C 47.3824 8.25836 48.8313 9.77835 51.0391 9.77835C 51.9343 9.82263 52.8137 9.53061 53.5045 8.95967L 52.7887 7.75455C 52.2729 8.14716 51.6443 8.36299 50.9961 8.37C 49.8049 8.37 48.9315 7.49407 48.9315 6.17731C 48.9315 4.86055 49.8077 3.99893 50.9961 3.98462C 51.6443 3.99162 52.2729 4.20746 52.7887 4.60006L 53.5045 3.39494C 52.8137 2.82401 51.9343 2.53199 51.0391 2.57626C 48.8313 2.57626 47.3824 4.09626 47.3824 6.17445L 47.3824 6.18017ZM 61.3505 6.18017L 61.3505 2.74515L 59.8586 2.74515L 59.8586 3.57814C 59.6043 3.25003 59.275 2.98759 58.8984 2.81279C 58.5217 2.63798 58.1087 2.5559 57.6938 2.5734C 55.7724 2.5734 54.2576 4.07908 54.2576 6.17158C 54.2576 8.26408 55.7638 9.76976 57.6938 9.76976C 58.1087 9.78727 58.5217 9.70518 58.8984 9.53038C 59.275 9.35557 59.6043 9.09313 59.8586 8.76502L 59.8586 9.59515L 61.3505 9.59515L 61.3505 6.18017ZM 55.8011 6.18017C 55.8011 4.97505 56.5885 3.98748 57.88 3.98748C 59.1141 3.98748 59.9445 4.93498 59.9445 6.18017C 59.9445 7.42536 59.1141 8.37286 57.88 8.37286C 56.5885 8.37286 55.8011 7.38243 55.8011 6.18017ZM 37.8011 2.58199C 35.7966 2.58199 34.3878 4.04473 34.3878 6.18017C 34.3878 8.35854 35.851 9.77835 37.9013 9.77835C 38.925 9.81421 39.9261 9.4718 40.7133 8.81655L 39.9831 7.71162C 39.4136 8.16713 38.708 8.41905 37.9786 8.42725C 37.0165 8.42725 36.1431 7.98356 35.9284 6.74981L 41.0197 6.74981C 41.034 6.56375 41.0483 6.37768 41.0483 6.17731C 41.0483 4.04187 39.7139 2.57913 37.7925 2.57913L 37.8011 2.58199ZM 37.7725 3.91592C 38.7346 3.91592 39.3502 4.51705 39.5077 5.57904L 35.9541 5.57904C 36.1116 4.58861 36.713 3.91592 37.7753 3.91592L 37.7725 3.91592ZM 75.1841 6.18017L 75.1841 -2.18393e-07L 73.6922 -2.18393e-07L 73.6922 3.58387C 73.4379 3.25576 73.1086 2.99332 72.732 2.81851C 72.3553 2.64371 71.9423 2.56162 71.5274 2.57913C 69.606 2.57913 68.0912 4.08481 68.0912 6.17731C 68.0912 8.26981 69.5974 9.77549 71.5274 9.77549C 71.9423 9.79299 72.3553 9.71091 72.732 9.5361C 73.1086 9.3613 73.4379 9.09886 73.6922 8.77075L 73.6922 9.60088L 75.1841 9.60088L 75.1841 6.18017ZM 76.928 8.97399C 76.987 8.97375 77.0454 8.98544 77.0998 9.00834C 77.1521 9.03066 77.1997 9.06272 77.2401 9.1028C 77.2801 9.14213 77.3122 9.18877 77.3346 9.2402C 77.3576 9.29354 77.3695 9.351 77.3695 9.40909C 77.3695 9.46717 77.3576 9.52464 77.3346 9.57798C 77.3121 9.62937 77.28 9.676 77.2401 9.71538C 77.1996 9.7553 77.152 9.78733 77.0998 9.80984C 77.0455 9.83297 76.987 9.84466 76.928 9.84419C 76.8407 9.84528 76.755 9.82061 76.6816 9.77325C 76.6083 9.7259 76.5505 9.65797 76.5156 9.57798C 76.4928 9.5246 76.481 9.46714 76.481 9.40909C 76.481 9.35103 76.4928 9.29358 76.5156 9.2402C 76.5604 9.13509 76.6448 9.05181 76.7504 9.00834C 76.8084 8.98421 76.8709 8.97251 76.9337 8.97399L 76.928 8.97399ZM 76.928 9.74686C 76.9732 9.74757 77.0181 9.7388 77.0597 9.7211C 77.0991 9.70403 77.1351 9.67976 77.1656 9.64954C 77.2293 9.58569 77.265 9.49923 77.265 9.40909C 77.265 9.31895 77.2293 9.23249 77.1656 9.16864C 77.1352 9.13826 77.0992 9.11397 77.0597 9.09707C 77.018 9.07954 76.9732 9.07077 76.928 9.07131C 76.8818 9.0707 76.836 9.07946 76.7934 9.09707C 76.7423 9.11887 76.6974 9.15281 76.6624 9.19594C 76.6275 9.23907 76.6036 9.29009 76.5929 9.34455C 76.5821 9.39901 76.5849 9.45526 76.6009 9.50842C 76.6169 9.56157 76.6456 9.61002 76.6846 9.64954C 76.7159 9.68017 76.7529 9.70446 76.7934 9.7211C 76.8378 9.73957 76.8856 9.74836 76.9337 9.74686L 76.928 9.74686ZM 76.9537 9.20299C 76.9966 9.19998 77.0392 9.21214 77.074 9.23734C 77.0881 9.24859 77.0993 9.26301 77.1068 9.27943C 77.1143 9.29584 77.1178 9.31379 77.117 9.3318C 77.1175 9.34729 77.1147 9.3627 77.1088 9.37702C 77.1028 9.39134 77.0939 9.40422 77.0826 9.41481C 77.0564 9.43816 77.0231 9.45224 76.9881 9.45489L 77.1198 9.6066L 77.0167 9.6066L 76.8936 9.45489L 76.8535 9.45489L 76.8535 9.6066L 76.7676 9.6066L 76.7676 9.20585L 76.9537 9.20299ZM 76.8535 9.27741L 76.8535 9.38619L 76.9537 9.38619C 76.9715 9.39136 76.9904 9.39136 77.0081 9.38619C 77.0146 9.38178 77.0199 9.37578 77.0234 9.36877C 77.0269 9.36175 77.0286 9.35395 77.0282 9.34611C 77.0286 9.33827 77.0269 9.33047 77.0234 9.32346C 77.0199 9.31644 77.0146 9.31044 77.0081 9.30604C 76.9904 9.30087 76.9715 9.30087 76.9537 9.30604L 76.8535 9.27741ZM 69.6404 6.18017C 69.6404 4.97505 70.4278 3.98748 71.7193 3.98748C 72.9534 3.98748 73.7838 4.93498 73.7838 6.18017C 73.7838 7.42536 72.9534 8.37286 71.7193 8.37286C 70.4278 8.37286 69.6404 7.38243 69.6404 6.18017ZM 19.2714 6.18017L 19.2714 2.74515L 17.7795 2.74515L 17.7795 3.57814C 17.5251 3.25282 17.1968 2.99277 16.8218 2.81953C 16.4468 2.6463 16.036 2.56487 15.6233 2.58199C 13.7019 2.58199 12.1871 4.08767 12.1871 6.18017C 12.1871 8.27267 13.6933 9.77835 15.6233 9.77835C 16.0381 9.79585 16.4512 9.71377 16.8278 9.53897C 17.2044 9.36416 17.5337 9.10172 17.7881 8.77361L 17.7881 9.60374L 19.28 9.60374L 19.2714 6.18017ZM 13.7219 6.18017C 13.7219 4.97505 14.5094 3.98748 15.8008 3.98748C 17.035 3.98748 17.8654 4.93498 17.8654 6.18017C 17.8654 7.42536 17.035 8.37286 15.8008 8.37286C 14.5094 8.37286 13.7219 7.38529 13.7219 6.18017Z"/>
<path id="path1_fill" d="M 9.02003 0L 0 0L 0 16.2047L 9.02003 16.2047L 9.02003 0Z"/>
<path id="path2_fill" d="M 12.7411 10.3036C 12.7398 8.74326 13.0937 7.20305 13.7758 5.79957C 14.458 4.39609 15.4505 3.16611 16.6784 2.20271C 15.1576 1.00796 13.3313 0.265014 11.4081 0.0587874C 9.48492 -0.147439 7.5425 0.191372 5.80284 1.0365C 4.06318 1.88163 2.59646 3.19897 1.57031 4.83798C 0.544169 6.47698 1.59784e-07 8.37152 1.59784e-07 10.3051C 1.59784e-07 12.2386 0.544169 14.1331 1.57031 15.7721C 2.59646 17.4111 4.06318 18.7285 5.80284 19.5736C 7.5425 20.4187 9.48492 20.7576 11.4081 20.5513C 13.3313 20.3451 15.1576 19.6022 16.6784 18.4074C 15.4501 17.4437 14.4573 16.2133 13.7752 14.8093C 13.093 13.4052 12.7394 11.8645 12.7411 10.3036Z"/>
<path id="path3_fill" d="M 16.6799 10.3077C 16.6799 12.2414 16.1356 14.136 15.1092 15.7751C 14.0829 17.4141 12.616 18.7315 10.8761 19.5765C 9.1362 20.4215 7.19359 20.7601 5.2703 20.5536C 3.34702 20.347 1.52066 19.6037 -2.62161e-07 18.4086C 1.22738 17.4443 2.21966 16.214 2.90198 14.8105C 3.5843 13.4069 3.93883 11.8668 3.93883 10.3063C 3.93883 8.74574 3.5843 7.2056 2.90198 5.80204C 2.21966 4.39848 1.22738 3.16816 -2.62161e-07 2.2039C 1.52085 1.00863 3.34747 0.265287 5.27102 0.0588719C 7.19456 -0.147544 9.13739 0.191297 10.8774 1.03665C 12.6174 1.88201 14.0843 3.19976 15.1104 4.83924C 16.1365 6.47872 16.6804 8.37376 16.6799 10.3077Z"/>
<path id="path4_fill" d="M 0.200445 0.400752L 0.200445 0.0686996L 0.33503 0.0686996L 0.33503 0.00286295L 8.73871e-07 0.00286295L 8.73871e-07 0.0715627L 0.134586 0.0715627L 0.134586 0.403616L 0.200445 0.400752ZM 0.861913 0.400752L 0.861913 -1.74714e-07L 0.773145 -1.74714e-07L 0.652879 0.286251L 0.532612 -1.74714e-07L 0.42666 -1.74714e-07L 0.42666 0.400752L 0.486795 0.400752L 0.486795 0.100187L 0.598472 0.360677L 0.675787 0.360677L 0.787464 0.100187L 0.787464 0.403616L 0.861913 0.400752Z"/>
</defs>
</svg>
