<svg width="59" height="18" viewBox="0 0 59 18" version="1.1" xmlns="http://www.w3.org/2000/svg" xmlns:xlink="http://www.w3.org/1999/xlink">
<title>mc_sc</title>
<desc>Created using Figma</desc>
<g id="Canvas" transform="translate(-34319 16233)">
<g id="mc_sc">
<g id="Layer 2">
<g id="Layer 1">
<g id="Group">
<g id="Vector">
<use xlink:href="#path0_fill" transform="translate(34319.3 -16222.5)" fill="#585858"/>
</g>
<g id="Vector">
<use xlink:href="#path1_fill" transform="translate(34319.9 -16232.7)" fill="#585858"/>
</g>
</g>
</g>
</g>
</g>
</g>
<defs>
<path id="path0_fill" d="M 5.00775 1.77561C 4.71183 1.58818 4.39323 1.43901 4.05961 1.33171C 3.72555 1.22556 3.37691 1.17216 3.02632 1.17345C 2.8087 1.1715 2.59166 1.19613 2.38004 1.24679C 2.20139 1.28831 2.03122 1.36012 1.87694 1.45909C 1.74494 1.54397 1.63383 1.65744 1.55186 1.79105C 1.4737 1.92304 1.43352 2.07396 1.43576 2.22724C 1.43006 2.36302 1.4651 2.49742 1.53638 2.61324C 1.61046 2.72283 1.71005 2.81289 1.82663 2.87572C 1.97161 2.95492 2.12646 3.01462 2.28716 3.05328C 2.48998 3.10409 2.69538 3.14404 2.90248 3.17294L 3.3901 3.23856C 3.67324 3.27802 3.95277 3.33998 4.22601 3.42384C 4.48571 3.50161 4.73131 3.62019 4.95357 3.77511C 5.16529 3.92373 5.34113 4.11758 5.46828 4.34253C 5.60391 4.59772 5.6706 4.88374 5.66178 5.17244C 5.66853 5.50325 5.5899 5.83024 5.43345 6.122C 5.2829 6.39651 5.07265 6.63392 4.81812 6.81681C 4.54528 7.01163 4.24 7.15669 3.91642 7.24527C 3.56257 7.34457 3.19653 7.39395 2.82895 7.39195C 2.58004 7.39073 2.3316 7.37008 2.08592 7.33019C 1.82376 7.29075 1.56501 7.23139 1.31192 7.15263C 1.07193 7.07281 0.838946 6.9734 0.615326 6.85541C 0.394365 6.74283 0.187775 6.60416 -5.90511e-08 6.44238L 0.615326 5.53528C 0.748372 5.65506 0.895161 5.75871 1.05263 5.84408C 1.41501 6.04195 1.80706 6.18012 2.21363 6.25324C 2.41911 6.29145 2.62767 6.31083 2.83669 6.31114C 3.05264 6.3139 3.2682 6.29188 3.47911 6.24552C 3.66306 6.2055 3.83943 6.13644 4.00156 6.04094C 4.14168 5.9587 4.26192 5.84668 4.35372 5.71284C 4.44207 5.58178 4.488 5.42685 4.4853 5.26894C 4.48798 5.13811 4.45293 5.00927 4.38432 4.89773C 4.31572 4.78619 4.21645 4.69665 4.0983 4.63975C 3.71761 4.46297 3.3091 4.35327 2.89087 4.31551L 2.34134 4.23831C 2.07826 4.20188 1.81915 4.14114 1.56734 4.05689C 1.32551 3.97745 1.09907 3.85735 0.897834 3.70177C 0.698761 3.54723 0.536245 3.35086 0.421827 3.12662C 0.291161 2.86822 0.224791 2.58224 0.228329 2.29286C 0.222507 1.96676 0.298325 1.64437 0.448917 1.35487C 0.594067 1.08238 0.799133 0.846173 1.04876 0.663925C 1.31618 0.470398 1.61639 0.326561 1.93499 0.239321C 2.2874 0.139517 2.65224 0.0901318 3.01858 0.0926412C 3.4922 0.0865081 3.96378 0.155564 4.41564 0.297222C 4.82583 0.42985 5.21632 0.6168 5.57664 0.853066L 5.00775 1.77561ZM 8.85838 2.31602C 9.17623 2.31311 9.49122 2.37621 9.7833 2.5013C 10.0579 2.61981 10.3035 2.79628 10.5031 3.01854C 10.7092 3.25241 10.8682 3.5237 10.9714 3.81757C 11.088 4.14857 11.1456 4.49737 11.1417 4.84819C 11.1417 4.91382 11.1417 4.9833 11.1417 5.04892C 11.1417 5.11454 11.1417 5.18016 11.1417 5.24192L 7.55032 5.24192C 7.57618 5.43853 7.63922 5.62845 7.73608 5.80162C 7.81964 5.95032 7.93136 6.08141 8.06503 6.18762C 8.19309 6.28723 8.33882 6.36187 8.4946 6.40764C 8.65543 6.45478 8.82232 6.47819 8.98995 6.47712C 9.23856 6.47521 9.48487 6.42948 9.71751 6.34202C 9.96046 6.251 10.1867 6.12058 10.387 5.95602L 10.9095 6.70873C 10.6361 6.94802 10.3158 7.12809 9.96906 7.23755C 9.62892 7.33946 9.27544 7.39019 8.92029 7.38809C 8.57892 7.39174 8.24 7.33016 7.92184 7.20667C 7.63107 7.09068 7.36754 6.91588 7.14785 6.69329C 6.92417 6.46491 6.75025 6.19288 6.63701 5.89426C 6.51203 5.56114 6.45034 5.20771 6.45512 4.85205C 6.45141 4.50059 6.51173 4.15139 6.63314 3.82143C 6.7424 3.52327 6.91089 3.25019 7.1285 3.01854C 7.34656 2.79304 7.61046 2.61668 7.90249 2.5013C 8.20571 2.3767 8.53043 2.31245 8.85838 2.31216L 8.85838 2.31602ZM 8.83903 3.254C 8.66748 3.25073 8.49684 3.27953 8.33593 3.33892C 8.19116 3.39181 8.05926 3.47469 7.94893 3.5821C 7.83978 3.69405 7.75192 3.82484 7.68964 3.96811C 7.61973 4.1202 7.57153 4.28132 7.54645 4.44675L 10.0542 4.44675C 10.0242 4.12045 9.88837 3.81281 9.6672 3.57052C 9.55783 3.46324 9.42756 3.37946 9.28446 3.32435C 9.14135 3.26925 8.98843 3.24399 8.83516 3.25014L 8.83903 3.254ZM 14.4466 2.31602C 14.7941 2.31275 15.1387 2.37835 15.4606 2.50902C 15.7609 2.63633 16.0263 2.83355 16.2346 3.08416L 15.5573 3.80213C 15.4016 3.64525 15.2212 3.51486 15.0232 3.41612C 14.8262 3.32828 14.6121 3.2848 14.3963 3.28874C 14.2022 3.28673 14.0099 3.32484 13.8313 3.40068C 13.6611 3.4804 13.5095 3.5948 13.3862 3.73651C 13.2545 3.87724 13.1519 4.04252 13.0844 4.22287C 12.9394 4.62854 12.9394 5.07171 13.0844 5.47738C 13.1515 5.6591 13.2541 5.82573 13.3862 5.9676C 13.5137 6.10312 13.6678 6.21089 13.839 6.28412C 14.0176 6.35997 14.21 6.39808 14.4041 6.39606C 14.632 6.39647 14.857 6.34498 15.0619 6.24552C 15.2576 6.15427 15.4378 6.03315 15.596 5.88654L 16.25 6.63153C 16.0328 6.8825 15.7598 7.07944 15.4528 7.20667C 15.1325 7.33783 14.789 7.40346 14.4428 7.39967C 14.0851 7.40477 13.73 7.33918 13.3979 7.20667C 13.0963 7.0864 12.8233 6.90436 12.5967 6.67231C 12.37 6.44026 12.1947 6.16337 12.0821 5.85952C 11.8395 5.20967 11.8395 4.49444 12.0821 3.84459C 12.1948 3.54399 12.369 3.27004 12.5935 3.04013C 12.818 2.81021 13.0879 2.62935 13.3862 2.50902C 13.7217 2.37368 14.0809 2.30674 14.4428 2.31216L 14.4466 2.31602ZM 21.6641 5.21876C 21.6731 5.55831 21.607 5.89567 21.4706 6.20692C 21.3548 6.46626 21.183 6.69691 20.9675 6.88243C 20.7575 7.05812 20.514 7.18944 20.2516 7.26843C 19.7118 7.43326 19.135 7.43326 18.5952 7.26843C 18.3317 7.18933 18.0869 7.05804 17.8754 6.88243C 17.6586 6.69816 17.4866 6.46719 17.3723 6.20692C 17.2385 5.89501 17.1738 5.55793 17.1827 5.21876L 17.1827 2.43954L 18.2431 2.43954L 18.2431 5.14156C 18.2377 5.34211 18.2678 5.54203 18.3321 5.73214C 18.3857 5.87808 18.4717 6.01004 18.5836 6.11814C 18.6934 6.22098 18.826 6.29638 18.9706 6.33817C 19.2736 6.42872 19.5965 6.42872 19.8994 6.33817C 20.044 6.29638 20.1767 6.22098 20.2864 6.11814C 20.3984 6.01004 20.4844 5.87808 20.538 5.73214C 20.6036 5.54228 20.6351 5.34234 20.6308 5.14156L 20.6308 2.43954L 21.6912 2.43954L 21.6641 5.21876ZM 25.5147 2.31602C 25.6612 2.3154 25.8075 2.32702 25.9521 2.35076C 26.0844 2.37187 26.2141 2.40681 26.3391 2.45498L 26.0875 3.49718C 25.9651 3.43605 25.8349 3.39189 25.7005 3.36594C 25.5644 3.3366 25.4257 3.32108 25.2864 3.31962C 25.1276 3.31767 24.9699 3.34651 24.822 3.40454C 24.6832 3.45953 24.5588 3.54534 24.4583 3.65545C 24.3528 3.7746 24.2725 3.91377 24.2222 4.06461C 24.1627 4.24115 24.1339 4.42652 24.137 4.61273L 24.137 7.26457L 23.0612 7.26457L 23.0612 2.43954L 24.1061 2.43954L 24.1061 2.9838C 24.2551 2.76204 24.4627 2.5857 24.7059 2.47428C 24.9595 2.36341 25.234 2.30813 25.5109 2.31216L 25.5147 2.31602ZM 29.0558 2.31602C 29.3736 2.31311 29.6886 2.37621 29.9807 2.5013C 30.2553 2.61981 30.5009 2.79628 30.7005 3.01854C 30.9134 3.25084 31.0791 3.52222 31.1881 3.81757C 31.3047 4.14859 31.3623 4.49738 31.3584 4.84819C 31.3584 4.91382 31.3584 4.9833 31.3584 5.04892C 31.3584 5.11454 31.3584 5.18016 31.3584 5.24192L 27.7439 5.24192C 27.7697 5.43853 27.8328 5.62845 27.9296 5.80162C 28.0132 5.95032 28.1249 6.08141 28.2586 6.18762C 28.3866 6.28723 28.5324 6.36187 28.6881 6.40764C 28.849 6.45478 29.0159 6.47819 29.1835 6.47712C 29.4321 6.47521 29.6784 6.42948 29.911 6.34202C 30.154 6.251 30.3802 6.12058 30.5806 5.95602L 31.1069 6.70487C 30.8335 6.94425 30.5133 7.12434 30.1665 7.23369C 29.8263 7.3356 29.4728 7.38633 29.1177 7.38423C 28.7763 7.38788 28.4374 7.3263 28.1192 7.20281C 27.8285 7.08682 27.5649 6.91202 27.3452 6.68943C 27.1216 6.46105 26.9477 6.18902 26.8344 5.8904C 26.7094 5.55728 26.6477 5.20385 26.6525 4.84819C 26.6488 4.49674 26.7091 4.14753 26.8305 3.81757C 26.9375 3.52005 27.1033 3.24702 27.3182 3.01468C 27.5362 2.78918 27.8001 2.61282 28.0922 2.49744C 28.3968 2.37367 28.7229 2.31072 29.0519 2.31216L 29.0558 2.31602ZM 29.0364 3.254C 28.8649 3.25073 28.6942 3.27953 28.5333 3.33892C 28.3886 3.39181 28.2567 3.47469 28.1463 3.5821C 28.0372 3.69405 27.9493 3.82484 27.887 3.96811C 27.8172 4.12022 27.769 4.28133 27.7439 4.44675L 30.2593 4.44675C 30.2294 4.12045 30.0935 3.81281 29.8723 3.57052C 29.7621 3.46227 29.6305 3.37792 29.486 3.32279C 29.3415 3.26765 29.1871 3.24292 29.0326 3.25014L 29.0364 3.254ZM 35.8902 0.0694805C 36.1961 0.0684437 36.5012 0.102113 36.7996 0.169841C 37.0828 0.23401 37.357 0.332532 37.6162 0.463203C 37.864 0.588356 38.0943 0.745382 38.3012 0.930266C 38.5029 1.10913 38.6764 1.31734 38.8159 1.54787L 37.8638 2.18092C 37.6515 1.8687 37.3658 1.61295 37.0318 1.43593C 36.6741 1.24892 36.2745 1.15593 35.8708 1.16573C 35.5291 1.16214 35.1899 1.22508 34.8724 1.35101C 34.5813 1.47178 34.318 1.6504 34.0984 1.87597C 33.8714 2.10845 33.6937 2.38413 33.5759 2.68658C 33.3233 3.35854 33.3233 4.09903 33.5759 4.77099C 33.6937 5.07344 33.8714 5.34912 34.0984 5.5816C 34.318 5.80718 34.5813 5.98579 34.8724 6.10656C 35.1899 6.2325 35.5291 6.29543 35.8708 6.29184C 36.2576 6.30031 36.6404 6.21223 36.9844 6.03561C 37.3285 5.85899 37.6228 5.59943 37.8406 5.28052L 38.7694 5.95988C 38.6184 6.18057 38.4388 6.38044 38.2354 6.55433C 38.0357 6.73478 37.8148 6.89032 37.5775 7.01753C 37.3242 7.14429 37.0565 7.24019 36.7803 7.30317C 35.9854 7.47857 35.1563 7.41682 34.3963 7.12561C 33.9578 6.95446 33.5595 6.69463 33.2265 6.36248C 32.8934 6.03033 32.633 5.63304 32.4614 5.1956C 32.0985 4.25654 32.0985 3.21647 32.4614 2.27742C 32.633 1.83997 32.8934 1.44268 33.2265 1.11053C 33.5595 0.778379 33.9578 0.518556 34.3963 0.347403C 34.8716 0.159233 35.3789 0.0648466 35.8902 0.0694805ZM 42.1208 2.30058C 42.4759 2.29649 42.8283 2.36207 43.158 2.49358C 43.465 2.61575 43.745 2.79672 43.9823 3.02626C 44.216 3.2549 44.4016 3.52789 44.5279 3.82915C 44.7904 4.47528 44.7904 5.19795 44.5279 5.84408C 44.4016 6.14534 44.216 6.41833 43.9823 6.64697C 43.745 6.87651 43.465 7.05748 43.158 7.17965C 42.4908 7.43819 41.7508 7.43819 41.0837 7.17965C 40.7763 7.0582 40.4961 6.87715 40.2594 6.64697C 40.0234 6.42366 39.834 6.15605 39.7021 5.85952C 39.4396 5.21339 39.4396 4.49072 39.7021 3.84459C 39.8277 3.54385 40.0118 3.27095 40.2439 3.0417C 40.4806 2.81152 40.7608 2.63047 41.0682 2.50902C 41.4036 2.37368 41.7629 2.30674 42.1247 2.31216L 42.1208 2.30058ZM 42.1208 3.2926C 41.9155 3.29046 41.7117 3.32849 41.521 3.40454C 41.341 3.4762 41.1777 3.58393 41.0411 3.72107C 40.9042 3.86075 40.7964 4.02604 40.7238 4.20743C 40.5689 4.61134 40.5689 5.05803 40.7238 5.46194C 40.7964 5.64333 40.9042 5.80862 41.0411 5.9483C 41.1778 6.08527 41.3411 6.19298 41.521 6.26482C 41.9066 6.41548 42.335 6.41548 42.7207 6.26482C 42.9015 6.1941 43.0661 6.08751 43.2045 5.9515C 43.3429 5.81548 43.4521 5.65287 43.5256 5.47352C 43.6805 5.06961 43.6805 4.62292 43.5256 4.21901C 43.4524 4.03701 43.3432 3.87159 43.2044 3.73265C 43.0662 3.59574 42.9016 3.48808 42.7207 3.41612C 42.5312 3.34056 42.3288 3.30254 42.1247 3.30418L 42.1208 3.2926ZM 47.8987 2.30058C 48.1906 2.28931 48.481 2.34791 48.7456 2.47147C 49.0102 2.59503 49.2413 2.77997 49.4196 3.01082L 49.4196 -1.17799e-07L 50.4761 -1.17799e-07L 50.4761 7.26071L 49.4196 7.26071L 49.4196 6.68171C 49.2509 6.89663 49.0369 7.0719 48.7927 7.19509C 48.5144 7.32976 48.2079 7.39594 47.8987 7.38809C 47.5793 7.39113 47.2627 7.3294 46.968 7.20665C 46.6733 7.08389 46.4066 6.90267 46.1843 6.67399C 45.9599 6.43949 45.7849 6.16256 45.6696 5.85952C 45.4208 5.20281 45.4208 4.47814 45.6696 3.82143C 45.7864 3.52256 45.9613 3.24969 46.1843 3.01854C 46.4066 2.78986 46.6733 2.60864 46.968 2.48588C 47.2627 2.36312 47.5793 2.30139 47.8987 2.30444L 47.8987 2.30058ZM 48.0264 3.2926C 47.816 3.28932 47.6074 3.33146 47.4149 3.41612C 47.2412 3.49392 47.0857 3.60698 46.9583 3.74809C 46.8318 3.8914 46.7346 4.05791 46.6719 4.23831C 46.5374 4.6259 46.5374 5.04732 46.6719 5.43492C 46.7346 5.61532 46.8318 5.78182 46.9583 5.92514C 47.0857 6.06625 47.2412 6.1793 47.4149 6.2571C 47.6063 6.33652 47.8114 6.37741 48.0187 6.37741C 48.2259 6.37741 48.4311 6.33652 48.6224 6.2571C 48.7967 6.18193 48.9535 6.07153 49.0829 5.93286C 49.2089 5.79947 49.3087 5.64366 49.377 5.47352C 49.5184 5.07651 49.5184 4.64304 49.377 4.24603C 49.3105 4.06603 49.2093 3.90079 49.079 3.75967C 48.9494 3.62125 48.7927 3.51089 48.6185 3.43542C 48.4325 3.3509 48.2308 3.30619 48.0264 3.30418L 48.0264 3.2926ZM 53.9862 2.30058C 54.304 2.29755 54.619 2.36066 54.9111 2.48586C 55.1857 2.60426 55.4313 2.78074 55.6309 3.0031C 55.837 3.23697 55.996 3.50826 56.0992 3.80213C 56.2159 4.13311 56.2735 4.48193 56.2695 4.83275C 56.2695 4.89837 56.2695 4.96785 56.2695 5.03348C 56.2695 5.0991 56.2695 5.16472 56.2695 5.22648L 52.6975 5.22648C 52.7228 5.42321 52.7858 5.61325 52.8832 5.78618C 52.9667 5.93494 53.0784 6.06605 53.2122 6.17218C 53.3402 6.27187 53.4859 6.34652 53.6417 6.39221C 53.8026 6.43929 53.9695 6.4627 54.1371 6.46169C 54.3857 6.45977 54.632 6.41404 54.8646 6.32658C 55.1076 6.2355 55.3338 6.10508 55.5342 5.94058L 56.0605 6.68943C 55.787 6.92863 55.4668 7.10869 55.1201 7.21825C 54.7799 7.32021 54.4265 7.37095 54.0713 7.36879C 53.7299 7.37244 53.391 7.31086 53.0729 7.18737C 52.7821 7.07138 52.5186 6.89658 52.2989 6.67399C 52.0752 6.44561 51.9013 6.17358 51.788 5.87496C 51.663 5.54184 51.6014 5.18841 51.6061 4.83275C 51.6024 4.48129 51.6627 4.13209 51.7841 3.80213C 51.8935 3.50402 52.062 3.23096 52.2795 2.99924C 52.4976 2.77374 52.7615 2.59738 53.0535 2.482C 53.3508 2.36702 53.6673 2.30939 53.9862 2.31216L 53.9862 2.30058ZM 56.7764 7.24913L 56.7764 7.01753L 56.8732 7.01753L 56.8732 6.96735L 56.6216 6.96735L 56.6216 7.01753L 56.73 7.01753L 56.73 7.26071L 56.7764 7.24913ZM 57.2602 7.24913L 57.2602 6.95577L 57.1828 6.95577L 57.0938 7.15649L 57.0047 6.95577L 56.9273 6.95577L 56.9273 7.24913L 56.9815 7.24913L 56.9815 7.02911L 57.0628 7.21825L 57.117 7.21825L 57.1982 7.02911L 57.1982 7.24913L 57.2602 7.24913ZM 53.9668 3.23856C 53.7953 3.23529 53.6246 3.26409 53.4637 3.32348C 53.3189 3.37637 53.187 3.45925 53.0767 3.56667C 52.9676 3.67861 52.8797 3.8094 52.8174 3.95267C 52.7476 4.1048 52.6994 4.2659 52.6742 4.43131L 55.182 4.43131C 55.1545 4.10095 55.0185 3.78887 54.795 3.5435C 54.6838 3.44155 54.5532 3.36301 54.4109 3.3126C 54.2686 3.2622 54.1175 3.24095 53.9668 3.25014L 53.9668 3.23856Z"/>
<path id="path1_fill" d="M 7.89475 7.51547L 6.71054 7.51547L 6.71054 1.50155L 4.57044 6.79365L 3.32431 6.79365L 1.19195 1.55945L 1.19195 7.51547L 2.95256e-08 7.51547L 2.95256e-08 0.208442L 1.81502 0.208442L 3.94738 5.43106L 6.07586 0.208442L 7.89088 0.208442L 7.89475 7.51547ZM 14.1254 7.51547L 13.0302 7.51547L 13.0302 6.91717C 12.8553 7.14015 12.6333 7.32201 12.3801 7.44985C 12.0919 7.58811 11.7748 7.65561 11.4551 7.64671C 11.1235 7.65023 10.7946 7.58633 10.4886 7.45891C 10.1825 7.33149 9.90566 7.14323 9.67494 6.90559C 9.44353 6.66552 9.26202 6.38216 9.14088 6.07182C 8.88262 5.39025 8.88262 4.6381 9.14088 3.95653C 9.26211 3.64624 9.44361 3.36289 9.67494 3.12276C 9.90566 2.88513 10.1825 2.69686 10.4886 2.56944C 10.7946 2.44202 11.1235 2.37812 11.4551 2.38164C 11.7752 2.37318 12.0925 2.44205 12.3801 2.58236C 12.6332 2.71206 12.8551 2.89514 13.0302 3.1189L 13.0302 2.51674L 14.1254 2.51674L 14.1254 7.51547ZM 11.5828 3.41226C 11.3645 3.40856 11.148 3.45201 10.9482 3.53964C 10.7686 3.62028 10.6078 3.73727 10.476 3.88319C 10.3448 4.03235 10.2436 4.20535 10.178 4.39271C 10.0383 4.79529 10.0383 5.23306 10.178 5.63564C 10.2442 5.82356 10.3468 5.99668 10.4799 6.14516C 10.6115 6.29125 10.7724 6.40827 10.952 6.48871C 11.1506 6.57152 11.3637 6.61416 11.579 6.61416C 11.7942 6.61416 12.0073 6.57152 12.2059 6.48871C 12.386 6.41051 12.548 6.2962 12.6819 6.15288C 12.8169 6.00584 12.922 5.83413 12.9915 5.64722C 13.1379 5.23517 13.1379 4.78546 12.9915 4.37341C 12.922 4.1865 12.8169 4.01479 12.6819 3.86775C 12.5479 3.7246 12.3859 3.61031 12.2059 3.53192C 12.0091 3.44834 11.7967 3.40755 11.5828 3.41226ZM 19.1448 3.76739C 19.0532 3.71489 18.9589 3.66722 18.8623 3.62457C 18.7364 3.56999 18.6071 3.52357 18.4753 3.4856C 18.3329 3.44268 18.1882 3.40788 18.0418 3.38138C 17.8886 3.3532 17.7332 3.33899 17.5774 3.33892C 17.3327 3.32499 17.0893 3.38268 16.877 3.5049C 16.8013 3.54894 16.7385 3.61208 16.6951 3.68797C 16.6516 3.76386 16.6289 3.84982 16.6293 3.93723C 16.6265 4.01577 16.6496 4.09307 16.6951 4.15725C 16.7411 4.21879 16.8007 4.26897 16.8692 4.30393C 16.9525 4.34616 17.041 4.3773 17.1324 4.39657C 17.233 4.41973 17.3414 4.44032 17.4575 4.45833L 17.976 4.53553C 18.437 4.58316 18.8781 4.74796 19.257 5.01417C 19.4137 5.13019 19.5397 5.28259 19.624 5.45815C 19.7083 5.63371 19.7484 5.82713 19.7407 6.02164C 19.743 6.25087 19.6899 6.47726 19.5859 6.68171C 19.4772 6.8791 19.3251 7.04935 19.1409 7.17965C 18.9248 7.33431 18.6822 7.44813 18.425 7.51547C 18.1095 7.59937 17.7839 7.63963 17.4575 7.63513C 17.3285 7.63513 17.1788 7.62741 17.0085 7.61197C 16.8246 7.59454 16.6422 7.56358 16.4629 7.51933C 16.2619 7.46915 16.0653 7.40333 15.8746 7.32247C 15.6724 7.23654 15.4813 7.12636 15.3058 6.99437L 15.8127 6.17604C 15.9062 6.24821 16.0045 6.31398 16.1068 6.3729C 16.2215 6.43789 16.342 6.49217 16.4667 6.53503C 16.6117 6.58467 16.7606 6.62212 16.9118 6.64697C 17.0947 6.67665 17.2799 6.69085 17.4652 6.68943C 17.7584 6.70595 18.0512 6.64888 18.3166 6.52345C 18.402 6.48421 18.4745 6.42174 18.5258 6.34321C 18.5772 6.26468 18.6053 6.17329 18.6068 6.07954C 18.6055 6.00795 18.5856 5.93792 18.5489 5.87634C 18.5123 5.81476 18.4602 5.76374 18.3979 5.72828C 18.1952 5.61586 17.971 5.54746 17.74 5.52756L 17.2175 5.45808C 16.7564 5.42079 16.3157 5.25195 15.9482 4.97171C 15.8058 4.8518 15.6925 4.7013 15.6168 4.53151C 15.5411 4.36171 15.5049 4.17701 15.5109 3.99127C 15.5077 3.75911 15.558 3.52933 15.6579 3.31962C 15.7537 3.12066 15.8957 2.94732 16.072 2.81396C 16.2674 2.66955 16.4878 2.56225 16.7222 2.49744C 17.003 2.41927 17.2936 2.38157 17.5852 2.3855C 17.9612 2.38336 18.3358 2.43007 18.6997 2.52446C 19.0237 2.60468 19.3332 2.73492 19.6169 2.91046L 19.1448 3.76739ZM 24.3383 3.5049L 22.4033 3.5049L 22.4033 5.68196C 22.403 5.82919 22.4279 5.97538 22.4768 6.11428C 22.5124 6.22172 22.5704 6.3204 22.6471 6.40379C 22.7167 6.47813 22.8028 6.535 22.8986 6.56977C 22.9991 6.60609 23.1052 6.62438 23.2121 6.62381C 23.3909 6.6224 23.568 6.58839 23.7346 6.52345C 23.9047 6.46018 24.0681 6.38 24.2222 6.28412L 24.6556 7.15649C 24.4425 7.29864 24.214 7.41646 23.9745 7.50775C 23.701 7.60894 23.411 7.65868 23.1192 7.65443C 22.8779 7.66843 22.6363 7.63359 22.4088 7.55199C 22.1814 7.4704 21.9728 7.34374 21.7957 7.17965C 21.6215 6.97799 21.4894 6.74373 21.407 6.49056C 21.3246 6.23739 21.2936 5.97037 21.3158 5.70512L 21.3158 3.50876L 20.3212 3.50876L 20.3212 2.51674L 21.3158 2.51674L 21.3158 1.00361L 22.4149 1.00361L 22.4149 2.51674L 24.3499 2.51674L 24.3383 3.5049ZM 27.7052 2.38164C 28.0348 2.37749 28.3616 2.44191 28.6649 2.57078C 28.9499 2.69358 29.2047 2.87665 29.4118 3.10732C 29.6263 3.35017 29.7918 3.63194 29.8994 3.93723C 30.0196 4.28078 30.0785 4.64264 30.0736 5.00645C 30.0736 5.07594 30.0736 5.14542 30.0736 5.2149C 30.0736 5.28438 30.0736 5.35 30.0736 5.41176L 26.3468 5.41176C 26.374 5.61524 26.4396 5.81172 26.5403 5.99076C 26.6283 6.13976 26.7439 6.27075 26.8809 6.37676C 27.0136 6.47973 27.1646 6.55698 27.3259 6.60451C 27.4929 6.65395 27.6664 6.67866 27.8406 6.67785C 28.1049 6.67848 28.3671 6.6314 28.6146 6.53889C 28.8651 6.44881 29.0991 6.31842 29.3073 6.15288L 29.853 6.92489C 29.5693 7.17277 29.2373 7.3594 28.8778 7.47301C 28.5252 7.57936 28.1587 7.6327 27.7903 7.63127C 27.4304 7.64377 27.0715 7.58608 26.7338 7.46143C 26.4286 7.34236 26.1518 7.16091 25.9211 6.92875C 25.6889 6.69152 25.5084 6.40897 25.3909 6.09884C 25.261 5.75343 25.1967 5.38692 25.2013 5.01804C 25.1967 4.6536 25.2583 4.29134 25.3832 3.94881C 25.4968 3.63919 25.6718 3.35561 25.8979 3.11504C 26.1156 2.88436 26.3792 2.70161 26.6719 2.5785C 26.9996 2.44478 27.3512 2.37911 27.7052 2.3855L 27.7052 2.38164ZM 27.6858 3.35436C 27.5076 3.35109 27.3304 3.38121 27.1634 3.44314C 27.0181 3.50047 26.8863 3.58722 26.7764 3.69791C 26.6639 3.8096 26.5722 3.94029 26.5055 4.08391C 26.4287 4.24407 26.3753 4.41434 26.3468 4.58957L 28.9474 4.58957C 28.9127 4.24938 28.7656 3.93033 28.5295 3.68247C 28.418 3.57419 28.286 3.48936 28.141 3.43299C 27.9961 3.37663 27.8413 3.34989 27.6858 3.35436ZM 33.8778 2.38164C 34.0294 2.38068 34.1809 2.3923 34.3306 2.41638C 34.4629 2.43933 34.5925 2.47554 34.7176 2.52446L 34.4544 3.60527C 34.332 3.54332 34.2018 3.49788 34.0674 3.47016C 33.9261 3.44049 33.7822 3.42497 33.6378 3.42384C 33.4736 3.4223 33.3107 3.45244 33.158 3.51262C 33.0103 3.56895 32.8778 3.65882 32.771 3.77511C 32.6606 3.89855 32.5763 4.04298 32.5233 4.19971C 32.4615 4.38244 32.4314 4.57432 32.4343 4.76713L 32.4343 7.51933L 31.3391 7.51933L 31.3391 2.5013L 32.4227 2.5013L 32.4227 3.06486C 32.576 2.84062 32.7873 2.6619 33.0341 2.54762C 33.2967 2.43492 33.5804 2.37964 33.8662 2.3855L 33.8778 2.38164ZM 37.62 2.38164C 37.9808 2.37796 38.3387 2.4462 38.6727 2.58236C 38.9908 2.71238 39.2724 2.91773 39.4931 3.18066L 38.7926 3.92565C 38.6302 3.76806 38.4434 3.63771 38.2392 3.53964C 38.0349 3.44823 37.813 3.40213 37.5891 3.40454C 37.3884 3.40264 37.1894 3.44206 37.0047 3.52034C 36.8262 3.59575 36.6653 3.7075 36.5326 3.84845C 36.3971 3.99507 36.2918 4.1669 36.223 4.35411C 36.0721 4.77466 36.0721 5.23439 36.223 5.65494C 36.2919 5.84211 36.3971 6.01392 36.5326 6.1606C 36.6654 6.30146 36.8262 6.4132 37.0047 6.48871C 37.1894 6.56699 37.3884 6.60641 37.5891 6.60451C 37.8217 6.60671 38.0519 6.55657 38.2625 6.45783C 38.466 6.35879 38.6527 6.22854 38.8159 6.07182L 39.4892 6.82453C 39.2639 7.08581 38.9802 7.29073 38.6611 7.42283C 38.3285 7.55909 37.9718 7.62734 37.6123 7.62355C 37.2413 7.62876 36.873 7.56054 36.5287 7.42283C 36.2171 7.29896 35.9347 7.1118 35.6996 6.87323C 35.4644 6.63467 35.2815 6.34992 35.1626 6.03708C 34.9111 5.36359 34.9111 4.6223 35.1626 3.94881C 35.2815 3.63597 35.4644 3.35122 35.6996 3.11266C 35.9347 2.8741 36.2171 2.68693 36.5287 2.56306C 36.8734 2.43376 37.2403 2.37343 37.6084 2.3855L 37.62 2.38164ZM 45.3097 7.51547L 44.2145 7.51547L 44.2145 6.91717C 44.0396 7.14015 43.8176 7.32201 43.5643 7.44985C 43.2762 7.58811 42.959 7.65561 42.6394 7.64671C 42.3078 7.65023 41.9789 7.58633 41.6728 7.45891C 41.3668 7.33149 41.0899 7.14323 40.8592 6.90559C 40.6278 6.66552 40.4463 6.38216 40.3252 6.07182C 40.0669 5.39025 40.0669 4.6381 40.3252 3.95653C 40.4464 3.64624 40.6279 3.36289 40.8592 3.12276C 41.0899 2.88513 41.3668 2.69686 41.6728 2.56944C 41.9789 2.44202 42.3078 2.37812 42.6394 2.38164C 42.9594 2.37318 43.2767 2.44205 43.5643 2.58236C 43.8175 2.71206 44.0393 2.89514 44.2145 3.1189L 44.2145 2.51674L 45.3097 2.51674L 45.3097 7.51547ZM 42.771 3.41226C 42.5527 3.40856 42.3362 3.45201 42.1363 3.53964C 41.9567 3.62028 41.796 3.73727 41.6642 3.88319C 41.5329 4.03235 41.4318 4.20535 41.3662 4.39271C 41.2264 4.79529 41.2264 5.23306 41.3662 5.63564C 41.4318 5.823 41.5329 5.996 41.6642 6.14516C 41.7959 6.29117 41.9567 6.40817 42.1363 6.48871C 42.3349 6.57131 42.548 6.61384 42.7632 6.61384C 42.9784 6.61384 43.1915 6.57131 43.3902 6.48871C 43.5702 6.41041 43.7322 6.29612 43.8662 6.15288C 44.0016 6.0062 44.1068 5.83439 44.1758 5.64722C 44.3228 5.23528 44.3228 4.78535 44.1758 4.37341C 44.1068 4.18624 44.0016 4.01443 43.8662 3.86775C 43.7321 3.7246 43.5701 3.61031 43.3902 3.53192C 43.1957 3.44952 42.9861 3.40875 42.7748 3.41226L 42.771 3.41226ZM 49.4622 2.3855C 49.6138 2.38454 49.7652 2.39616 49.9149 2.42024C 50.0473 2.44319 50.1769 2.4794 50.3019 2.52832L 50.0388 3.60913C 49.9164 3.54718 49.7862 3.50174 49.6518 3.47402C 49.5105 3.4444 49.3666 3.42888 49.2222 3.4277C 49.058 3.42606 48.895 3.45621 48.7423 3.51648C 48.5947 3.57281 48.4622 3.66268 48.3554 3.77897C 48.2449 3.90241 48.1607 4.04684 48.1077 4.20357C 48.0459 4.3863 48.0158 4.57818 48.0187 4.77099L 48.0187 7.52319L 46.9235 7.52319L 46.9235 2.50516L 48.0187 2.50516L 48.0187 3.06872C 48.1724 2.84239 48.3851 2.66221 48.634 2.54762C 48.8966 2.43503 49.1803 2.37976 49.466 2.3855L 49.4622 2.3855ZM 53.0535 2.3855C 53.3735 2.37704 53.6908 2.44591 53.9784 2.58622C 54.2315 2.71602 54.4534 2.89908 54.6286 3.12276L 54.6286 -1.47248e-07L 55.7238 -1.47248e-07L 55.7238 7.51547L 54.6286 7.51547L 54.6286 6.91717C 54.4537 7.14015 54.2317 7.32201 53.9784 7.44985C 53.6903 7.58811 53.3731 7.65561 53.0535 7.64671C 52.7219 7.65023 52.393 7.58633 52.0869 7.45891C 51.7809 7.33149 51.504 7.14323 51.2733 6.90559C 51.0378 6.66649 50.8523 6.38307 50.7276 6.07182C 50.4694 5.39025 50.4694 4.6381 50.7276 3.95653C 50.8489 3.64624 51.0304 3.36289 51.2617 3.12276C 51.4924 2.88513 51.7693 2.69686 52.0753 2.56944C 52.3814 2.44202 52.7103 2.37812 53.0419 2.38164L 53.0535 2.3855ZM 57.0009 7.05613C 57.0446 7.0551 57.088 7.06298 57.1286 7.07929C 57.1676 7.09554 57.203 7.11913 57.2331 7.14877C 57.2625 7.17746 57.2862 7.21153 57.3027 7.24913C 57.3196 7.28815 57.3282 7.33018 57.3282 7.37265C 57.3282 7.41513 57.3196 7.45715 57.3027 7.49617C 57.2861 7.53372 57.2625 7.56778 57.2331 7.59653C 57.2029 7.62603 57.1675 7.64959 57.1286 7.66601C 57.0884 7.68386 57.0449 7.69307 57.0009 7.69304C 56.9371 7.69393 56.8745 7.67611 56.8209 7.6418C 56.7672 7.60748 56.7248 7.55818 56.699 7.50003C 56.6822 7.46101 56.6735 7.41898 56.6735 7.37651C 56.6735 7.33404 56.6822 7.29201 56.699 7.25299C 56.7154 7.21464 56.7392 7.17989 56.7691 7.15074C 56.799 7.1216 56.8344 7.09863 56.8732 7.08315C 56.9147 7.06521 56.9595 7.05601 57.0047 7.05613L 57.0009 7.05613ZM 57.0009 7.62355C 57.0341 7.62399 57.0671 7.61741 57.0976 7.60425C 57.1266 7.5912 57.1528 7.57287 57.175 7.55021C 57.2211 7.50331 57.2469 7.44026 57.2469 7.37458C 57.2469 7.30891 57.2211 7.24585 57.175 7.19895C 57.1529 7.17615 57.1267 7.1578 57.0976 7.14491C 57.0657 7.13836 57.0328 7.13836 57.0009 7.14491C 56.9689 7.13867 56.9361 7.13867 56.9041 7.14491C 56.8697 7.16155 56.8397 7.1859 56.8163 7.21605C 56.7929 7.24621 56.7768 7.28136 56.7693 7.31874C 56.7618 7.35613 56.7631 7.39474 56.7731 7.43154C 56.783 7.46835 56.8014 7.50236 56.8267 7.53091C 56.8489 7.55364 56.8751 7.57198 56.9041 7.58495C 56.9347 7.60367 56.9691 7.61553 57.0047 7.61969L 57.0009 7.62355ZM 57.0009 7.23755C 57.0328 7.23579 57.0643 7.24536 57.0899 7.26457C 57.1001 7.27296 57.1082 7.2836 57.1136 7.29566C 57.119 7.30772 57.1215 7.32087 57.1208 7.33405C 57.1215 7.3454 57.1198 7.35675 57.1158 7.36739C 57.1118 7.37803 57.1056 7.38772 57.0976 7.39581C 57.0786 7.41363 57.054 7.42451 57.028 7.42669L 57.1247 7.53863L 57.0473 7.53863L 56.9583 7.42669L 56.9312 7.42669L 56.9312 7.53863L 56.8693 7.53863L 56.8693 7.24141L 57.0009 7.23755ZM 56.9273 7.29159L 56.9273 7.36879L 57.0009 7.36879C 57.0135 7.37244 57.0269 7.37244 57.0396 7.36879C 57.042 7.36399 57.0432 7.35871 57.0432 7.35335C 57.0432 7.348 57.042 7.34271 57.0396 7.33791C 57.0423 7.33322 57.0437 7.32789 57.0437 7.32247C 57.0437 7.31705 57.0423 7.31173 57.0396 7.30703C 57.0269 7.30359 57.0135 7.30359 57.0009 7.30703L 56.9273 7.29159ZM 53.1657 3.43156C 52.9474 3.42786 52.7309 3.47131 52.5311 3.55895C 52.3515 3.63958 52.1907 3.75657 52.0589 3.90249C 51.9277 4.05165 51.8265 4.22465 51.7609 4.41201C 51.6212 4.81459 51.6212 5.25236 51.7609 5.65494C 51.8265 5.8423 51.9277 6.0153 52.0589 6.16446C 52.1906 6.31047 52.3514 6.42747 52.5311 6.50801C 52.7297 6.59061 52.9428 6.63314 53.158 6.63314C 53.3732 6.63314 53.5863 6.59061 53.7849 6.50801C 53.965 6.42971 54.127 6.31542 54.2609 6.17218C 54.4096 6.01887 54.5244 5.83606 54.5976 5.63564C 54.7443 5.22364 54.7443 4.77383 54.5976 4.36183C 54.5287 4.17466 54.4235 4.00285 54.288 3.85617C 54.154 3.71301 53.992 3.59873 53.812 3.52034C 53.6143 3.44083 53.402 3.404 53.1889 3.41226L 53.1657 3.43156Z"/>
</defs>
</svg>
