<svg width="12" height="18" viewBox="0 0 12 18" version="1.1" xmlns="http://www.w3.org/2000/svg" xmlns:xlink="http://www.w3.org/1999/xlink">
<title>Capa 1 3</title>
<desc>Created using Figma</desc>
<g id="Canvas" transform="translate(-32959 -1470)">
<rect x="32959" y="1470" width="12" height="18" fill="#E5E5E5"/>
<clipPath id="clip-0" clip-rule="evenodd">
<path d="M 32758 -1543L 34078 -1543L 34078 1527L 32758 1527L 32758 -1543Z" fill="#FFFFFF"/>
</clipPath>
<g id="home 1320 " clip-path="url(#clip-0)">
<path d="M 32758 -1543L 34078 -1543L 34078 1527L 32758 1527L 32758 -1543Z" fill="#FFFFFF"/>
<g id="footer">
<g id="bg">
<use xlink:href="#path0_fill" transform="translate(32758 1117)"/>
</g>
<g id="social">
<g id="Capa 1 3">
<g id="Group">
<g id="Group">
<g id="Vector">
<use xlink:href="#path1_fill" transform="translate(32959.9 1478.67)" fill="#FFFFFF"/>
</g>
<g id="Vector">
<use xlink:href="#path2_fill" transform="translate(32960.7 1470)" fill="#FFFFFF"/>
</g>
</g>
</g>
</g>
</g>
</g>
</g>
</g>
<defs>
<path id="path0_fill" d="M 0 0L 1320 0L 1320 410L 0 410L 0 0Z"/>
<path id="path1_fill" d="M 4.32033 3.45572C 2.98604 3.31656 1.78297 2.98794 0.752958 2.18235C 0.625153 2.08212 0.493201 1.98551 0.376572 1.87356C -0.0742619 1.44057 -0.119688 0.944675 0.23705 0.433634C 0.542232 -0.00368074 1.05454 -0.12067 1.58703 0.130434C 1.69014 0.179105 1.78838 0.239853 1.88248 0.305108C 3.80208 1.62408 6.43913 1.66049 8.36594 0.364413C 8.55684 0.218041 8.76089 0.098708 8.9974 0.0377796C 9.45724 -0.0802917 9.88609 0.0886133 10.1329 0.490957C 10.4148 0.950444 10.4112 1.39893 10.0638 1.75567C 9.53097 2.30259 8.89014 2.69826 8.17811 2.97442C 7.50483 3.23544 6.76738 3.36685 6.0375 3.4541C 6.14764 3.57397 6.19956 3.63292 6.26842 3.70214C 7.2595 4.6979 8.2549 5.68952 9.24273 6.68835C 9.57928 7.02868 9.64958 7.45067 9.46428 7.84653C 9.26166 8.27915 8.80812 8.56379 8.36342 8.53332C 8.08167 8.51385 7.86193 8.37361 7.66671 8.17695C 6.9188 7.42436 6.15684 6.68564 5.42407 5.91881C 5.21082 5.69583 5.10826 5.73801 4.92006 5.93161C 4.16765 6.70619 3.40298 7.46888 2.63381 8.22724C 2.28843 8.56775 1.87743 8.62904 1.47689 8.43454C 1.05111 8.22814 0.780177 7.79353 0.801088 7.35676C 0.815509 7.06131 0.960799 6.83562 1.16359 6.63319C 2.1444 5.65383 3.1225 4.67194 4.10096 3.69096C 4.16567 3.6257 4.22606 3.55648 4.32033 3.45572Z"/>
<path id="path2_fill" d="M 4.31842 8.71187C 1.93806 8.70376 -0.0138066 6.73044 7.35486e-05 4.3463C 0.0137734 1.93585 1.96691 -0.00665255 4.37069 1.71242e-05C 6.77935 0.00650654 8.71265 1.97695 8.70057 4.41246C 8.68832 6.79173 6.72293 8.72017 4.31842 8.71187ZM 6.48173 4.35207C 6.47759 3.16829 5.53482 2.22589 4.35339 2.2248C 3.16204 2.22354 2.2108 3.18307 2.21999 4.37767C 2.22883 5.55694 3.17971 6.49268 4.36438 6.48835C 5.54546 6.4842 6.4857 5.53567 6.48173 4.35207Z"/>
</defs>
</svg>
