<svg width="20" height="12" viewBox="0 0 20 12" version="1.1" xmlns="http://www.w3.org/2000/svg" xmlns:xlink="http://www.w3.org/1999/xlink">
<title>Layer 1 6</title>
<desc>Created using Figma</desc>
<g id="Canvas" transform="translate(-32861 -1473)">
<rect x="32861" y="1473" width="20" height="12" fill="#E5E5E5"/>
<clipPath id="clip-0" clip-rule="evenodd">
<path d="M 32758 -1543L 34078 -1543L 34078 1527L 32758 1527L 32758 -1543Z" fill="#FFFFFF"/>
</clipPath>
<g id="home 1320 " clip-path="url(#clip-0)">
<path d="M 32758 -1543L 34078 -1543L 34078 1527L 32758 1527L 32758 -1543Z" fill="#FFFFFF"/>
<g id="footer">
<g id="bg">
<use xlink:href="#path0_fill" transform="translate(32758 1117)"/>
</g>
<g id="social">
<g id="Layer 1 6">
<g id="XMLID 1">
<g id="XMLID 807">
<use xlink:href="#path1_fill" transform="translate(32861.1 1473.81)" fill="#FFFFFF"/>
</g>
</g>
</g>
</g>
</g>
</g>
</g>
<defs>
<path id="path0_fill" d="M 0 0L 1320 0L 1320 410L 0 410L 0 0Z"/>
<path id="path1_fill" fill-rule="evenodd" d="M 16.7994 7.03317C 17.4469 7.66618 18.1303 8.26175 18.7111 8.95859C 18.9676 9.26826 19.2105 9.58782 19.3963 9.94719C 19.6595 10.4581 19.4211 11.0202 18.9636 11.0507L 16.1199 11.0494C 15.3865 11.1104 14.8014 10.8147 14.3095 10.3126C 13.9157 9.91103 13.5511 9.48365 13.1726 9.06854C 13.0174 8.89887 12.8549 8.73922 12.6608 8.61303C 12.2726 8.36071 11.9357 8.43797 11.7138 8.84339C 11.4879 9.25574 11.4367 9.71234 11.4145 10.1719C 11.384 10.8424 11.1816 11.0187 10.509 11.0494C 9.07149 11.1173 7.70724 10.8995 6.4399 10.1734C 5.32257 9.53323 4.45613 8.62954 3.70198 7.60646C 2.23365 5.61431 1.1092 3.42527 0.0985808 1.17489C -0.1289 0.667881 0.0374617 0.395719 0.596128 0.386086C 1.52382 0.368041 2.45138 0.369325 3.38016 0.384802C 3.7572 0.390325 4.00681 0.606872 4.15239 0.963546C 4.6543 2.19932 5.26844 3.37505 6.03932 4.46485C 6.24462 4.75499 6.45395 5.04513 6.75204 5.24935C 7.08181 5.47547 7.3329 5.40052 7.48803 5.03268C 7.58648 4.79943 7.62958 4.5482 7.65177 4.29839C 7.72526 3.43894 7.73495 2.58097 7.60604 1.72455C 7.5269 1.19005 7.22624 0.844034 6.69361 0.742889C 6.42182 0.691321 6.46228 0.590047 6.59389 0.434701C 6.82246 0.166778 7.03743 -8.6232e-08 7.46597 -8.6232e-08L 10.6798 -8.6232e-08C 11.1857 0.0999894 11.2981 0.327583 11.3673 0.837356L 11.3701 4.412C 11.3646 4.60934 11.4685 5.19496 11.8235 5.32558C 12.1076 5.41857 12.2949 5.19098 12.4654 5.01058C 13.2348 4.19281 13.784 3.22638 14.2746 2.22565C 14.4924 1.78562 14.6796 1.32863 14.861 0.872034C 14.9954 0.533213 15.2064 0.366499 15.5875 0.373885L 18.6806 0.376646C 18.7723 0.376646 18.8651 0.377995 18.9539 0.393215C 19.4751 0.482159 19.618 0.706669 19.457 1.21631C 19.2034 2.01591 18.7098 2.68225 18.2273 3.35167C 17.7115 4.06637 17.1598 4.7566 16.6483 5.47553C 16.1783 6.13205 16.2156 6.46297 16.7994 7.03317Z"/>
</defs>
</svg>
