<svg width="18" height="18" viewBox="0 0 18 18" version="1.1" xmlns="http://www.w3.org/2000/svg" xmlns:xlink="http://www.w3.org/1999/xlink">
<title>Layer 1 4</title>
<desc>Created using Figma</desc>
<g id="Canvas" transform="translate(-32808 -1471)">
<rect x="32808" y="1471" width="18" height="18" fill="#E5E5E5"/>
<clipPath id="clip-0" clip-rule="evenodd">
<path d="M 32758 -1543L 34078 -1543L 34078 1527L 32758 1527L 32758 -1543Z" fill="#FFFFFF"/>
</clipPath>
<g id="home 1320 " clip-path="url(#clip-0)">
<path d="M 32758 -1543L 34078 -1543L 34078 1527L 32758 1527L 32758 -1543Z" fill="#FFFFFF"/>
<g id="footer">
<g id="bg">
<use xlink:href="#path0_fill" transform="translate(32758 1117)"/>
</g>
<g id="social">
<g id="Layer 1 4">
<g id="Group">
<g id="Vector">
<use xlink:href="#path1_fill" transform="translate(32808.5 1471.47)" fill="#FFFFFF"/>
</g>
<g id="Vector">
<use xlink:href="#path2_fill" transform="translate(32812.6 1475.63)" fill="#FFFFFF"/>
</g>
<g id="Vector">
<use xlink:href="#path3_fill" transform="translate(32820.5 1474.6)" fill="#FFFFFF"/>
</g>
</g>
</g>
</g>
</g>
</g>
</g>
<defs>
<path id="path0_fill" d="M 0 0L 1320 0L 1320 410L 0 410L 0 0Z"/>
<path id="path1_fill" d="M 12.1116 0L 5.13907 0C 2.30538 0 0 2.30538 0 5.13907L 0 12.1116C 0 14.9453 2.30538 17.2507 5.13907 17.2507L 12.1116 17.2507C 14.9453 17.2507 17.2507 14.9453 17.2507 12.1116L 17.2507 5.13907C 17.2507 2.30538 14.9453 0 12.1116 0ZM 15.5153 12.1116C 15.5153 13.9914 13.9914 15.5153 12.1116 15.5153L 5.13907 15.5153C 3.2593 15.5153 1.73542 13.9914 1.73542 12.1116L 1.73542 5.13907C 1.73542 3.25927 3.2593 1.73542 5.13907 1.73542L 12.1116 1.73542C 13.9914 1.73542 15.5153 3.25927 15.5153 5.13907L 15.5153 12.1116Z"/>
<path id="path2_fill" d="M 4.46164 0C 2.00149 0 0 2.00149 0 4.46161C 0 6.92173 2.00149 8.92325 4.46164 8.92325C 6.92179 8.92325 8.92328 6.92176 8.92328 4.46161C 8.92328 2.00146 6.92179 0 4.46164 0ZM 4.46164 7.18786C 2.95598 7.18786 1.73542 5.9673 1.73542 4.46164C 1.73542 2.95598 2.95601 1.73542 4.46164 1.73542C 5.9673 1.73542 7.18786 2.95598 7.18786 4.46164C 7.18786 5.96727 5.96727 7.18786 4.46164 7.18786Z"/>
<path id="path3_fill" d="M 1.0691 2.1382C 1.65955 2.1382 2.1382 1.65955 2.1382 1.0691C 2.1382 0.478653 1.65955 0 1.0691 0C 0.478653 0 0 0.478653 0 1.0691C 0 1.65955 0.478653 2.1382 1.0691 2.1382Z"/>
</defs>
</svg>
