<svg width="9" height="18" viewBox="0 0 9 18" version="1.1" xmlns="http://www.w3.org/2000/svg" xmlns:xlink="http://www.w3.org/1999/xlink">
<title>Layer 1 5</title>
<desc>Created using Figma</desc>
<g id="Canvas" transform="translate(-32916 -1470)">
<rect x="32916" y="1470" width="9" height="18" fill="#E5E5E5"/>
<clipPath id="clip-0" clip-rule="evenodd">
<path d="M 32758 -1543L 34078 -1543L 34078 1527L 32758 1527L 32758 -1543Z" fill="#FFFFFF"/>
</clipPath>
<g id="home 1320 " clip-path="url(#clip-0)">
<path d="M 32758 -1543L 34078 -1543L 34078 1527L 32758 1527L 32758 -1543Z" fill="#FFFFFF"/>
<g id="footer">
<g id="bg">
<use xlink:href="#path0_fill" transform="translate(32758 1117)"/>
</g>
<g id="social">
<g id="Layer 1 5">
<g id="XMLID 834">
<g id="XMLID 835">
<use xlink:href="#path1_fill" transform="translate(32916 1470.25)" fill="#FFFFFF"/>
</g>
</g>
</g>
</g>
</g>
</g>
</g>
<defs>
<path id="path0_fill" d="M 0 0L 1320 0L 1320 410L 0 410L 0 0Z"/>
<path id="path1_fill" d="M 0.27083 9.03515L 2.11144 9.03515L 2.11144 16.6906C 2.11144 16.8418 2.23267 16.9642 2.38227 16.9642L 5.5031 16.9642C 5.6527 16.9642 5.77393 16.8418 5.77393 16.6906L 5.77393 9.07121L 7.88986 9.07121C 8.02744 9.07121 8.1432 8.96691 8.15891 8.82884L 8.48027 6.01048C 8.4891 5.93294 8.46478 5.85529 8.41343 5.79711C 8.36203 5.73889 8.28847 5.70556 8.21128 5.70556L 5.77403 5.70556L 5.77403 3.93887C 5.77403 3.40631 6.05786 3.13625 6.61772 3.13625C 6.69751 3.13625 8.21128 3.13625 8.21128 3.13625C 8.36089 3.13625 8.48211 3.01372 8.48211 2.86263L 8.48211 0.275641C 8.48211 0.124496 8.36089 0.00202476 8.21128 0.00202476L 6.01513 0.00202476C 5.99964 0.00125864 5.96524 0 5.91454 0C 5.53348 0 4.20896 0.0755728 3.16269 1.04801C 2.00343 2.12562 2.16458 3.41588 2.20309 3.63959L 2.20309 5.70551L 0.27083 5.70551C 0.121224 5.70551 1.58689e-07 5.82798 1.58689e-07 5.97912L 1.58689e-07 8.76148C 1.58689e-07 8.91262 0.121224 9.03515 0.27083 9.03515Z"/>
</defs>
</svg>
