<svg width="46" height="23" viewBox="0 0 46 23" version="1.1" xmlns="http://www.w3.org/2000/svg" xmlns:xlink="http://www.w3.org/1999/xlink">
<title>Group</title>
<desc>Created using Figma</desc>
<g id="Canvas" transform="translate(-34138 16235)">
<g id="Group">
<g id="Vector">
<use xlink:href="#path0_fill" transform="translate(34138.3 -16234.1)" fill="#585858"/>
</g>
<g id="Vector">
<use xlink:href="#path1_fill" transform="translate(34143.9 -16232.1)" fill="#585858"/>
</g>
<g id="Vector">
<use xlink:href="#path2_fill" transform="translate(34149.3 -16232.1)" fill="#585858"/>
</g>
<g id="Vector">
<use xlink:href="#path3_fill" transform="translate(34152.4 -16234.1)" fill="#585858"/>
</g>
<g id="Vector">
<use xlink:href="#path4_fill" transform="translate(34154 -16234.6)" fill="#585858"/>
</g>
<g id="Vector">
<use xlink:href="#path5_fill" transform="translate(34157.8 -16234.1)" fill="#585858"/>
</g>
<g id="Vector">
<use xlink:href="#path6_fill" transform="translate(34159.6 -16232.1)" fill="#585858"/>
</g>
<g id="Vector">
<use xlink:href="#path7_fill" transform="translate(34164.6 -16234.5)" fill="#585858"/>
</g>
<g id="Vector">
<use xlink:href="#path8_fill" transform="translate(34173.1 -16234.5)" fill="#585858"/>
</g>
<g id="Vector">
<use xlink:href="#path9_fill" transform="translate(34178.2 -16232)" fill="#585858"/>
</g>
<g id="Vector">
<use xlink:href="#path10_fill" transform="translate(34141.8 -16223.2)" fill="#585858"/>
</g>
<g id="Vector">
<use xlink:href="#path11_fill" transform="translate(34153.9 -16223.2)" fill="#585858"/>
</g>
<g id="Vector">
<use xlink:href="#path12_fill" transform="translate(34158.6 -16223.4)" fill="#585858"/>
</g>
<g id="Vector">
<use xlink:href="#path13_fill" transform="translate(34166.4 -16223.2)" fill="#585858"/>
</g>
</g>
</g>
<defs>
<path id="path0_fill" d="M 2.39526 7.34432L 4.46624e-07 -6.69936e-07L 1.02445 -6.69936e-07L 2.16841 3.61971C 2.48307 4.61001 2.75625 5.50519 2.95138 6.36621L 2.97334 6.36621C 3.18066 5.51494 3.48556 4.58806 3.81241 3.62947L 5.05394 -6.69936e-07L 6.06619 -6.69936e-07L 3.44166 7.34432L 2.39526 7.34432Z"/>
<path id="path1_fill" d="M 0.912245 2.93431C 0.934198 4.23194 1.76107 4.76368 2.7221 4.76368C 3.22395 4.77947 3.72325 4.68626 4.1856 4.49049L 4.34902 5.17834C 3.79394 5.40945 3.19634 5.52083 2.59527 5.50518C 0.970786 5.50518 -2.97749e-07 4.43683 -2.97749e-07 2.84406C -2.97749e-07 1.25129 0.936637 1.48875e-07 2.47331 1.48875e-07C 4.19536 1.48875e-07 4.65392 1.51472 4.65392 2.48307C 4.65193 2.63323 4.64053 2.78313 4.61977 2.93187L 0.912245 2.93431ZM 3.7246 2.24647C 3.73679 1.63668 3.48068 0.687843 2.39526 0.687843C 1.41959 0.687843 1.00249 1.58302 0.931759 2.24647L 3.7246 2.24647Z"/>
<path id="path2_fill" d="M 0.043905 1.7636C 0.043905 1.14405 0.0439049 0.609873 0 0.117162L 0.839072 0.117162L 0.87078 1.15381L 0.914685 1.15381C 1.00525 0.83143 1.19571 0.546076 1.45867 0.33877C 1.72164 0.131464 2.04357 0.0128863 2.37818 8.37256e-05C 2.46942 -0.00105924 2.56042 0.00959813 2.64893 0.0317921L 2.64893 0.936721C 2.54168 0.912636 2.43199 0.901175 2.32208 0.902572C 1.64643 0.902572 1.16836 1.4148 1.03664 2.12215C 1.00931 2.27024 0.994625 2.42038 0.992738 2.57096L 0.992738 5.38331L 0.043905 5.38331L 0.043905 1.7636Z"/>
<path id="path3_fill" d="M 1.18806 0.6004C 1.17838 0.751343 1.1116 0.892938 1.00127 0.996412C 0.890954 1.09989 0.745376 1.15747 0.594123 1.15747C 0.442871 1.15747 0.297292 1.09989 0.186972 0.996412C 0.0766514 0.892938 0.00986631 0.751343 0.000188298 0.6004C -0.00182143 0.521055 0.012324 0.44213 0.0417671 0.368422C 0.0712102 0.294714 0.115335 0.227762 0.171459 0.171638C 0.227583 0.115514 0.294534 0.0713907 0.368242 0.0419476C 0.44195 0.0125044 0.520876 -0.00164284 0.600222 0.000366886C 0.679225 -0.00247346 0.757952 0.0111997 0.831372 0.0405128C 0.904791 0.0698259 0.971288 0.114134 1.02661 0.170605C 1.08193 0.227076 1.12487 0.294468 1.15267 0.368474C 1.18047 0.44248 1.19252 0.521471 1.18806 0.6004ZM 0.119707 2.08341L 1.08074 2.08341L 1.08074 7.35687L 0.119707 7.35687L 0.119707 2.08341Z"/>
<path id="path4_fill" d="M 0.731748 7.85208L 0.731748 3.30548L 0 3.30548L 0 2.57374L 0.731748 2.57374L 0.731748 2.32982C 0.731748 1.59807 0.895172 0.912669 1.34154 0.488255C 1.69056 0.165134 2.15145 -0.00977726 2.62698 0.000423077C 2.90662 -0.000516092 3.1839 0.0516284 3.44409 0.15409L 3.31482 0.885838C 3.12196 0.80164 2.91296 0.760839 2.70259 0.766319C 1.88547 0.766319 1.68058 1.48587 1.68058 2.29079L 1.68058 2.57374L 2.95382 2.57374L 2.95382 3.30548L 1.68058 3.30548L 1.68058 7.84964L 0.731748 7.85208Z"/>
<path id="path5_fill" d="M 1.18806 0.6004C 1.17838 0.751343 1.1116 0.892938 1.00128 0.996412C 0.890956 1.09989 0.745376 1.15747 0.594123 1.15747C 0.44287 1.15747 0.297294 1.09989 0.186973 0.996412C 0.0766526 0.892938 0.00986571 0.751343 0.000187703 0.6004C -0.00182202 0.521055 0.0123252 0.44213 0.0417684 0.368422C 0.0712115 0.294714 0.115337 0.227762 0.17146 0.171638C 0.227584 0.115514 0.294535 0.0713907 0.368243 0.0419476C 0.441951 0.0125044 0.520877 -0.00164284 0.600223 0.000366886C 0.679227 -0.00247346 0.757954 0.0111997 0.831373 0.0405128C 0.904792 0.0698259 0.971287 0.114134 1.02661 0.170605C 1.08193 0.227076 1.12487 0.294468 1.15267 0.368474C 1.18047 0.44248 1.19252 0.521471 1.18806 0.6004ZM 0.122146 2.08341L 1.08073 2.08341L 1.08073 7.35687L 0.122146 7.35687L 0.122146 2.08341Z"/>
<path id="path6_fill" d="M 0.914687 2.93431C 0.936639 4.23194 1.76351 4.76368 2.72454 4.76368C 3.22639 4.77954 3.72571 4.68634 4.18804 4.49049L 4.35146 5.17834C 3.79552 5.40944 3.19713 5.5208 2.59527 5.50518C 0.970787 5.50518 1.48875e-06 4.43683 1.48875e-06 2.84406C 1.48875e-06 1.25129 0.936639 1.48875e-07 2.47331 1.48875e-07C 4.19536 1.48875e-07 4.65392 1.51472 4.65392 2.48307C 4.65261 2.63326 4.6412 2.7832 4.61977 2.93187L 0.914687 2.93431ZM 3.72704 2.24647C 3.72704 1.63668 3.48312 0.687843 2.39769 0.687843C 1.42203 0.687843 1.00493 1.58302 0.934197 2.24647L 3.72704 2.24647Z"/>
<path id="path7_fill" d="M 4.93442 5.21061e-07L 4.93442 6.37597C 4.93442 6.84429 4.93442 7.37846 4.97589 7.73946L 4.1173 7.73946L 4.0734 6.82477L 4.05145 6.82477C 3.87931 7.1487 3.61934 7.41754 3.30138 7.60046C 2.98342 7.78339 2.62034 7.87299 2.25378 7.85897C 0.978103 7.85897 1.63762e-06 6.78087 1.63762e-06 5.1759C 1.63762e-06 3.42214 1.07811 2.34403 2.36599 2.34403C 2.6789 2.32511 2.99121 2.38994 3.27074 2.53185C 3.55027 2.67376 3.78692 2.88762 3.95632 3.1514L 3.97827 3.1514L 3.97827 5.21061e-07L 4.93442 5.21061e-07ZM 3.97339 4.61001C 3.97496 4.47378 3.96023 4.33784 3.92949 4.20511C 3.86088 3.88953 3.68619 3.607 3.43453 3.4046C 3.18286 3.20221 2.86943 3.09218 2.54648 3.09286C 1.55374 3.09286 0.965907 3.96364 0.965907 5.13199C 0.965907 6.20035 1.48789 7.08332 2.52453 7.08332C 2.85422 7.08206 3.17352 6.96781 3.42919 6.75964C 3.68485 6.55147 3.86143 6.26195 3.92949 5.93936C 3.9612 5.80431 3.97595 5.66583 3.97339 5.52714L 3.97339 4.61001Z"/>
<path id="path8_fill" d="M 0 7.73946C 0.0219524 7.37846 0.0439031 6.84429 0.0439031 6.37597L 0.0439031 5.21061e-07L 0.99274 5.21061e-07L 0.99274 3.31238L 1.01469 3.31238C 1.19576 3.00028 1.45933 2.74411 1.77645 2.57199C 2.09357 2.39988 2.45199 2.31847 2.81235 2.33671C 4.11974 2.33671 5.04662 3.42702 5.03687 5.01979C 5.03687 6.90526 3.84899 7.8419 2.67088 7.8419C 2.31268 7.86277 1.956 7.78058 1.64304 7.60508C 1.33008 7.42958 1.07394 7.16811 0.90493 6.8516L 0.87322 6.8516L 0.829313 7.72238L 0 7.73946ZM 0.99274 5.6247C 0.995786 5.74214 1.01049 5.85898 1.03664 5.9735C 1.11625 6.29419 1.30101 6.57896 1.56143 6.78234C 1.82184 6.98572 2.14289 7.09598 2.47331 7.09552C 3.4758 7.09552 4.07584 6.2784 4.07584 5.06858C 4.07584 4.01242 3.52947 3.11725 2.50746 3.11725C 2.16733 3.12324 1.83887 3.24227 1.57388 3.45559C 1.30889 3.66891 1.12245 3.96436 1.04396 4.29536C 1.01205 4.42396 0.994063 4.55562 0.990299 4.68807L 0.99274 5.6247Z"/>
<path id="path9_fill" d="M 1.04884 0.00243931L 2.20256 3.11969C 2.32208 3.46849 2.44648 3.88314 2.53917 4.19779L 2.56112 4.19779C 2.66112 3.8807 2.76845 3.46605 2.90016 3.09529L 3.94656 -3.72186e-07L 4.96125 -3.72186e-07L 3.52215 3.76118C 2.83674 5.57104 2.36842 6.49792 1.71473 7.06381C 1.38275 7.36865 0.977853 7.58286 0.539056 7.6858L 0.29514 6.87843C 0.602382 6.77782 0.88729 6.6188 1.13421 6.41012C 1.48227 6.12117 1.75863 5.75548 1.94157 5.34176C 1.98015 5.27041 2.00575 5.19278 2.01719 5.11248C 2.00775 5.0283 1.98554 4.94605 1.95133 4.86856L -1.48875e-07 0.00731681L 1.04884 0.00243931Z"/>
<path id="path10_fill" d="M 10.1957 4.58611e-06L 7.28821 7.35163L 6.11254 1.1025C 6.06527 0.795053 5.90933 0.514744 5.67302 0.312455C 5.43672 0.110166 5.13572 -0.000690215 4.82466 4.58611e-06L 0.0634182 4.58611e-06L -5.21061e-07 0.312217C 0.95281 0.504015 1.87848 0.812024 2.75625 1.22934C 3.16603 1.45374 3.28555 1.64887 3.41726 2.18061L 5.64666 10.8006L 8.60048 10.8006L 13.1276 4.58611e-06L 10.1957 4.58611e-06Z"/>
<path id="path11_fill" d="M 2.30745 1.33987e-06L -2.97749e-07 10.8006L 2.79284 10.8006L 5.09784 1.33987e-06L 2.30745 1.33987e-06Z"/>
<path id="path12_fill" d="M 4.0612 3.1953C 4.0612 2.80747 4.43927 2.39769 5.24663 2.28793C 6.19246 2.20159 7.14416 2.37003 8.00289 2.77576L 8.49072 0.487833C 7.65595 0.170923 6.77126 0.00571639 5.87838 8.93247e-07C 3.11481 8.93247e-07 1.17324 1.4635 1.15616 3.57337C 1.14153 5.12711 2.54648 5.99302 3.59532 6.50036C 4.64416 7.00771 5.05882 7.36627 5.04418 7.84434C 5.04418 8.57609 4.17584 8.88586 3.3758 8.89806C 2.37567 8.91982 1.38659 8.68556 0.502468 8.21753L 1.48875e-06 10.5835C 0.990601 10.9682 2.04484 11.1627 3.10749 11.1567C 6.03448 11.1567 7.95898 9.70542 7.96874 7.46139C 7.98093 4.61001 4.02705 4.45391 4.06608 3.18066"/>
<path id="path13_fill" d="M 4.31975 6.98332L 5.8052 2.92699L 6.64183 6.98332L 4.31975 6.98332ZM 5.38079 0.00731882C 5.12574 0.00474251 4.87583 0.0789708 4.66354 0.220351C 4.45125 0.361731 4.28642 0.56372 4.19048 0.800046L -4.46624e-07 10.8006L 2.92699 10.8006L 3.50995 9.18832L 7.09308 9.18832L 7.42968 10.8006L 10.0201 10.8006L 7.76628 1.63762e-06L 5.38079 0.00731882Z"/>
</defs>
</svg>
