<svg width="50" height="17" viewBox="0 0 50 17" version="1.1" xmlns="http://www.w3.org/2000/svg" xmlns:xlink="http://www.w3.org/1999/xlink">
<title>Artboard</title>
<desc>Created using Figma</desc>
<g id="Canvas" transform="translate(-34226 16232)">
<g id="Artboard">
<g id="Vector">
<use xlink:href="#path0_fill" transform="translate(34226.4 -16231.6)" fill="#585858"/>
</g>
</g>
</g>
<defs>
<path id="path0_fill" d="M 18.7792 0.286379L 12.3049 15.5005L 8.07963 15.5005L 4.89175 3.35987C 4.69709 2.61349 4.52991 2.33838 3.94134 2.02269C 2.98177 1.50856 1.39699 1.02826 -8.73621e-08 0.728348L 0.0938958 0.277359L 6.89334 0.277359C 7.33621 0.279147 7.76394 0.436318 8.09972 0.720656C 8.43551 1.00499 8.65736 1.39787 8.72545 1.82876L 10.4087 10.6231L 14.5814 0.286379L 18.7792 0.286379ZM 35.3369 10.5329C 35.353 6.51906 29.6963 6.30484 29.7352 4.50088C 29.7467 3.95518 30.2757 3.3734 31.4299 3.22683C 32.7816 3.09962 34.1431 3.3333 35.3713 3.90332L 36.0744 0.676485C 34.8786 0.233742 33.6121 0.00465667 32.3346 -8.60195e-09C 28.3841 -8.60195e-09 25.6038 2.06779 25.5809 5.02853C 25.5534 7.22035 27.5665 8.44027 29.0803 9.16862C 30.6376 9.91501 31.1597 10.3931 31.1528 11.0583C 31.1414 12.0798 29.9116 12.5307 28.7596 12.5465C 26.7512 12.5781 25.5832 12.0121 24.6534 11.5859L 23.932 14.9323C 24.8641 15.3539 26.5886 15.7215 28.3772 15.7395C 32.5773 15.7395 35.3232 13.6988 35.3369 10.5351L 35.3369 10.5329ZM 45.7708 15.496L 49.4671 15.496L 46.2403 0.286379L 42.828 0.286379C 42.4634 0.283017 42.1062 0.38765 41.8028 0.586694C 41.4994 0.785738 41.2637 1.07 41.1264 1.40258L 35.1285 15.5005L 39.3241 15.5005L 40.1577 13.2275L 45.2853 13.2275L 45.7708 15.496ZM 41.3096 10.1112L 43.4143 4.3994L 44.6258 10.1112L 41.3096 10.1112ZM 24.4908 0.286379L 21.1861 15.5005L 17.199 15.5005L 20.506 0.286379L 24.4908 0.286379Z"/>
</defs>
</svg>
